<svg xmlns="http://www.w3.org/2000/svg" width="400" height="325.424"><g fill-rule="evenodd"><path d="M206.509 56.154c-2.685.228-6.053.572-7.485.765-1.432.192-5.973.503-10.09.691-8.831.402-10.643.654-14.23 1.979-1.482.548-4.159 1.295-5.949 1.661-3.505.716-11.288 3.479-13.24 4.701-.658.412-2.141 1.195-3.295 1.74-2.818 1.331-6.832 5.469-8.395 8.653l-1.107 2.256-.005 13.67c-.006 15.92.056 14.849-.935 16.001l-.777.903-9.882.019-9.882.018-2.929.912c-1.611.502-4.467 1.256-6.347 1.675-3.844.858-11.378 3.676-13.25 4.956-.678.464-2.185 1.277-3.349 1.807-1.163.53-2.692 1.422-3.396 1.982a52.385 52.385 0 01-2.993 2.158c-2.586 1.721-9.483 7.723-10.647 9.267-1.971 2.613-4.291 5.52-5.421 6.795-1.25 1.409-2.942 4.255-4.769 8.023-.652 1.343-1.524 2.979-1.938 3.636-.415.657-1.133 2.542-1.596 4.189-.464 1.647-1.35 3.965-1.971 5.152-1.773 3.386-1.914 4.851-1.915 19.895-.002 14.997.106 16.097 1.942 19.645.635 1.228 1.507 3.592 1.939 5.253.527 2.03 1.416 4.18 2.71 6.555 4.55 8.357 4.481 8.253 8.852 13.282.806.927 1.924 2.352 2.485 3.167.945 1.373 2.044 2.356 7.881 7.056 3.043 2.45 7.407 5.353 9.307 6.191.886.39 2.057 1.049 2.604 1.463 1.557 1.179 2.414 1.556 5.033 2.21 1.342.335 3.179 1.025 4.083 1.532 8.321 4.671 34.924 4.726 44.984.092 1.614-.744 3.089-1.352 3.277-1.352 1.051 0 4.8-1.46 6.171-2.403.875-.602 2.244-1.425 3.042-1.828.798-.403 3.135-1.841 5.194-3.194 4.743-3.119 5.104-3.163 13.018-1.569 6.78 1.365 9.989 1.727 18.957 2.141 8.711.402 9.752.827 11.768 4.815 2.184 4.318 10.525 10.061 16.695 11.495 1.576.367 4.183 1.314 5.794 2.106 2.781 1.366 3.144 1.456 7.161 1.791 2.374.197 6.016.781 8.299 1.33 13.631 3.276 47.894 3.349 61.025.13 2.506-.615 5.802-1.211 7.323-1.325 4.147-.311 6.995-.979 8.956-2.101.968-.554 3.121-1.35 4.783-1.769 8.417-2.121 17.37-8.697 19.205-14.107l.742-2.184.092-33.32c.116-42.106.488-39.132-5.614-44.84-2.67-2.498-3.896-3.401-5.539-4.083-1.16-.481-2.734-1.302-3.498-1.822-1.644-1.121-10.526-4.02-14.685-4.793-1.585-.294-4.294-.962-6.021-1.483-4.053-1.224-6.798-1.531-17.298-1.935-9.179-.353-10.865-.551-12.219-1.438-2.002-1.312-1.922-.082-2.109-32.568l-.17-29.617-1.234-3.255c-1.978-5.216-5.901-9.758-9.875-11.433-.568-.239-1.775-.873-2.682-1.407-.906-.535-2.93-1.432-4.498-1.995a4329.33 4329.33 0 01-4.642-1.669c-.984-.356-3.312-.935-5.174-1.288-1.861-.353-4.438-1.061-5.726-1.572-3.215-1.277-5.074-1.548-13.347-1.943-3.938-.188-9.43-.562-12.205-.831-13.275-1.29-13.257-1.29-20.993-.634m28.409 12.228c1.305.181 4.087.837 6.184 1.456 2.396.708 5.737 1.372 8.992 1.787 2.849.364 5.998.962 6.998 1.33 1 .368 3.209 1.145 4.91 1.728 8.019 2.746 12.165 5.981 11.066 8.636-.357.861-5.458 4.225-7.161 4.722-.447.13-2.132.789-3.743 1.464-2.042.855-4.16 1.429-6.997 1.895-2.542.418-5.205 1.107-7.097 1.839-3.762 1.453-5.632 1.634-22.195 2.142-11.844.363-17.553.299-33.51-.375-8.454-.357-9.239-.478-13.301-2.056-1.581-.614-4.29-1.326-6.156-1.618a27.674 27.674 0 01-6.347-1.779c-1.657-.692-3.712-1.512-4.567-1.823-9.534-3.464-7.802-9.27 3.832-12.846a89.185 89.185 0 004.792-1.666c1.382-.531 3.579-1.104 4.882-1.274 1.302-.169 3.638-.466 5.19-.658 1.552-.193 3.676-.646 4.719-1.006 4.802-1.656 6.972-2.023 13.452-2.275 8.11-.315 32.947-.056 36.057.377m38.298 30.762c1.216.467 1.479 1.826 1.479 7.637 0 7.868-.81 9.657-5.339 11.797-1.057.499-2.851 1.468-3.987 2.153-1.354.817-2.821 1.386-4.262 1.653-1.209.225-3.662.896-5.452 1.492-1.797.599-5.878 1.53-9.113 2.08a791.62 791.62 0 00-8.348 1.459c-10.77 2.001-40.306 1.45-53.959-1.008-10.006-1.801-10.649-2.037-15.497-5.698-.904-.683-2.368-1.559-3.254-1.947-.886-.388-2.048-1.016-2.583-1.394-.535-.378-2.146-1.274-3.58-1.99-3.624-1.809-3.843-2.3-4.017-9.008l-.132-5.103.837-.837c1.07-1.07 2.489-1.09 4.813-.067.962.423 2.774 1.017 4.027 1.319 1.254.302 3.963 1.121 6.022 1.818 3.446 1.168 4.194 1.298 9.438 1.642 4.555.299 6.55.594 9.958 1.469 10.982 2.822 34.234 2.972 46.023.297 2.774-.629 6.655-1.289 8.625-1.466 8.869-.798 9.863-.956 12.899-2.049 1.677-.603 4.147-1.361 5.489-1.683 1.343-.322 3.247-.946 4.232-1.386 3.004-1.344 4.463-1.647 5.681-1.18M136.378 122.21c10.634.859 17.53 3.28 26.356 9.254 2.343 1.587 9.113 7.156 9.113 7.497 0 .12.991 1.307 2.201 2.638 5.81 6.389 11.477 16.939 12.155 22.63.19 1.594.717 4.803 1.171 7.13 1.188 6.087 1.314 10.245.435 14.32-.795 3.688-1.125 5.641-1.619 9.602-.26 2.08-.629 3.311-1.491 4.964-.63 1.209-1.447 2.966-1.816 3.906-2.577 6.561-9.63 15.498-16.894 21.408-1.701 1.383-3.449 2.901-3.885 3.372-.484.523-1.628 1.107-2.93 1.496-1.175.351-2.993 1.175-4.042 1.832-1.193.748-3.14 1.529-5.207 2.089-1.816.492-4.34 1.264-5.61 1.716-6.898 2.453-21.502 2.192-30.137-.54-2.025-.64-4.496-1.385-5.491-1.655-.995-.27-2.459-.934-3.254-1.476-.795-.541-2.421-1.28-3.613-1.641-1.515-.459-2.642-1.075-3.743-2.047-.867-.765-2.967-2.501-4.668-3.857-5.92-4.723-13.078-13.679-14.967-18.726-.353-.946-1.166-2.508-1.806-3.472-.878-1.322-1.287-2.423-1.662-4.48-.274-1.499-1.074-4.631-1.779-6.958-2.354-7.777-2.397-16.097-.119-22.782.61-1.79 1.339-4.614 1.62-6.275.591-3.499.9-4.417 1.942-5.784.417-.547 1.208-1.985 1.756-3.195 2.943-6.489 10.424-15.543 16.306-19.734 1.131-.806 2.688-2.001 3.462-2.657.773-.656 2.254-1.508 3.29-1.893 1.036-.386 2.532-1.079 3.324-1.54 6.15-3.583 10.851-4.636 24.93-5.583.362-.024 3.365.174 6.672.441m137.171 10.056c1.036 1.036 1.252 2.428 1.084 6.97-.234 6.325.001 6.192-11.604 6.604-10.943.389-13.528.668-17.51 1.889-1.764.541-4.526 1.225-6.137 1.52-3.782.692-11.849 3.433-14.164 4.812a47.389 47.389 0 01-3.734 1.957c-1.062.487-2.669 1.45-3.571 2.141-3.309 2.536-5.916 3.065-12.908 2.62-6.729-.429-7.571-.873-8.638-4.554-.7-2.417-3.352-8.264-4.952-10.916-3.133-5.195-1.964-6.152 6.402-5.237 12.72 1.39 19.962 1.398 32.016.034 2.267-.257 6.588-.691 9.602-.965 5.846-.532 8.222-.886 11.338-1.685 1.074-.276 3.825-.843 6.114-1.261 2.722-.497 4.946-1.122 6.434-1.807 1.972-.91 7.8-2.757 9.029-2.863.232-.02.771.314 1.199.741m-145.399.321c-1.796.668-2.085 1.009-2.873 3.402-.877 2.661-2.302 4.14-5.589 5.794-3.196 1.61-6.528 4.655-7.79 7.119-.55 1.074-1.397 2.538-1.882 3.254-5.174 7.643-.207 24.151 8.337 27.702.691.287 1.916.999 2.721 1.581 2.364 1.709 2.735 1.817 7.316 2.124 4.716.317 5.299.504 8.176 2.628 4.214 3.113 4.484 11.108.496 14.71-2.341 2.115-3.058 2.354-7.038 2.347-6.071-.012-8.229-2.078-10.391-9.95-1.161-4.228-5.22-6.122-8.811-4.113-3.657 2.046-3.779 9.433-.245 14.898a123.718 123.718 0 012.035 3.259c1.025 1.727 5.328 5.239 8.176 6.673 3.147 1.585 3.453 2.087 4.518 7.401.843 4.204 5.162 5.853 8.436 3.22 1.28-1.029 1.755-2.226 2.251-5.664.419-2.907 1.135-3.816 4.192-5.327 4.176-2.063 7.687-5.875 10.263-11.143l2.019-4.129.007-4.557.008-4.556-1.709-3.432c-.94-1.887-1.709-3.605-1.709-3.818 0-.642-4.262-4.953-6.18-6.251-2.917-1.975-3.79-2.31-8.601-3.305-9.119-1.885-11.164-2.888-12.877-6.315-4.159-8.322 2.931-16.794 11.892-14.209 3.448.994 5.396 3.309 6.462 7.676 1.581 6.484 6.371 8.94 10.821 5.55 5.364-4.085-.877-18.969-9.727-23.199-3.041-1.453-4.231-2.558-4.789-4.447-.942-3.185-1.399-4.092-2.299-4.557-1.384-.716-4.185-.898-5.616-.366m171.118 24.395c1.79.279 4.719.878 6.509 1.331 1.79.453 5.918 1.125 9.172 1.495 3.992.453 6.693.937 8.3 1.486a123.15 123.15 0 005.276 1.634c1.591.45 3.602 1.177 4.468 1.616a40.087 40.087 0 003.357 1.465c2.493.932 4.816 3.49 4.675 5.148-.117 1.383-2.055 3.027-5.468 4.64-6.893 3.258-6.344 3.061-10.328 3.702a26.966 26.966 0 00-6.161 1.793c-3.492 1.492-5.539 1.837-12.477 2.101-2.775.106-7.974.444-11.554.751-7.268.624-17.523.666-23.922.098-2.238-.198-7.144-.51-10.903-.692-10.036-.487-11.918-.754-14.716-2.083-1.305-.619-3.581-1.363-5.057-1.652-4.834-.947-6.302-1.417-10.077-3.225-9.765-4.676-8.646-8.874 3.487-13.082 7.997-2.774 9.93-3.263 14.646-3.702 2.148-.201 5.516-.729 7.485-1.175 9.98-2.26 11.332-2.372 27.177-2.253 9.637.072 13.671.223 16.111.604M208.1 173.786c1.642.624 1.827 1.598 1.827 9.615 0 9.652-.049 9.753-4.72 9.682-5.008-.076-5.201-.492-4.881-10.503.238-7.479.33-7.969 1.627-8.713.794-.455 5.017-.511 6.147-.081m133.509 14.368c.762.84 1.106 11.228.453 13.653-.816 3.032-6.511 7.138-12.19 8.788-1.796.522-4.008 1.233-4.916 1.582-.908.348-3.325.946-5.37 1.328-2.046.383-5.125 1.049-6.843 1.481-5.883 1.479-8.207 1.6-30.888 1.607-22.652.006-24.064-.069-30.268-1.617-1.701-.425-4.813-1.076-6.916-1.449-2.103-.372-4.753-1.026-5.889-1.453-1.135-.428-3.442-1.17-5.126-1.65-3.377-.962-8.031-3.567-9.214-5.158-.631-.848-.691-1.418-.79-7.486-.16-9.712.198-10.374 4.794-8.872a82.193 82.193 0 004.474 1.313c1.1.277 3.047.949 4.326 1.493 2.312.984 3.312 1.157 11.086 1.919 1.905.186 4.93.778 6.835 1.338 5.564 1.634 9.641 1.93 26.62 1.934 17.051.003 19.319-.162 26.594-1.944 3.983-.976 6.381-1.359 10.201-1.631 4.852-.346 6.805-.763 9.164-1.956.627-.317 2.531-.95 4.231-1.406 1.701-.457 3.971-1.2 5.045-1.651 2.433-1.022 3.767-1.069 4.587-.163m-136.335 17.851c4.795.445 4.813.479 5.116 9.823.335 10.31.144 10.608-6.583 10.25-15.579-.83-18.747-2.121-15.798-6.436 1.714-2.508 3.833-6.222 5.288-9.265 1.881-3.933 3.728-5.14 7.354-4.802l4.623.43m136.378 15.216c.731 1.113 1.035 10.932.424 13.679-.745 3.348-8.221 7.98-14.936 9.253-1.872.355-4.616 1.147-6.097 1.76-1.481.613-3.764 1.262-5.074 1.442-3.616.497-17.766 1.952-22.722 2.336-4.835.375-21.74.149-25.712-.344-1.343-.166-6.249-.687-10.904-1.158-8.363-.845-10.052-1.181-13.434-2.677-.952-.421-3.078-.994-4.726-1.274-3.045-.517-4.133-.944-8.975-3.523-5.481-2.919-5.737-3.431-5.737-11.48 0-5.855.043-6.297.691-7.16 1.06-1.41 3.676-1.307 6.958.274 1.342.646 2.953 1.276 3.58 1.398.626.123 3.556.79 6.509 1.483 2.954.693 7.86 1.558 10.903 1.921 3.043.364 7.306 1.022 9.472 1.464 11.488 2.34 28.154 2.336 39.674-.009 2.148-.437 6.409-1.082 9.469-1.432 3.059-.35 6.501-.845 7.648-1.1 8.287-1.84 12.184-2.881 13.692-3.659 3.989-2.058 8.362-2.62 9.297-1.194" fill="#f0bb04"/><path d="M0 162.734v162.734h400V0H0v162.734M218.877 55.979c1.969.175 5.85.539 8.625.809 2.775.269 8.267.643 12.205.831 8.273.395 10.132.666 13.347 1.943 1.288.511 3.865 1.219 5.726 1.572 1.862.353 4.19.932 5.174 1.288.985.355 3.073 1.106 4.642 1.669 1.568.563 3.592 1.46 4.498 1.995.907.534 2.114 1.168 2.682 1.407 3.974 1.675 7.897 6.217 9.875 11.433l1.234 3.255.17 29.617c.187 32.486.107 31.256 2.109 32.568 1.354.887 3.04 1.085 12.219 1.438 10.5.404 13.245.711 17.298 1.935 1.727.521 4.436 1.189 6.021 1.483 4.159.773 13.041 3.672 14.685 4.793.764.52 2.338 1.341 3.498 1.822 1.643.682 2.869 1.585 5.539 4.083 6.102 5.708 5.73 2.734 5.614 44.84l-.092 33.32-.742 2.184c-1.835 5.41-10.788 11.986-19.205 14.107-1.662.419-3.815 1.215-4.783 1.769-1.961 1.122-4.809 1.79-8.956 2.101-1.521.114-4.817.71-7.323 1.325-13.131 3.219-47.394 3.146-61.025-.13-2.283-.549-5.925-1.133-8.299-1.33-4.017-.335-4.38-.425-7.161-1.791-1.611-.792-4.218-1.739-5.794-2.106-6.17-1.434-14.511-7.177-16.695-11.495-2.016-3.988-3.057-4.413-11.768-4.815-8.968-.414-12.177-.776-18.957-2.141-7.914-1.594-8.275-1.55-13.018 1.569-2.059 1.353-4.396 2.791-5.194 3.194s-2.167 1.226-3.042 1.828c-1.371.943-5.12 2.403-6.171 2.403-.188 0-1.663.608-3.277 1.352-10.06 4.634-36.663 4.579-44.984-.092-.904-.507-2.741-1.197-4.083-1.532-2.619-.654-3.476-1.031-5.033-2.21-.547-.414-1.718-1.073-2.604-1.463-1.9-.838-6.264-3.741-9.307-6.191-5.837-4.7-6.936-5.683-7.881-7.056-.561-.815-1.679-2.24-2.485-3.167-4.371-5.029-4.302-4.925-8.852-13.282-1.294-2.375-2.183-4.525-2.71-6.555-.432-1.661-1.304-4.025-1.939-5.253-1.836-3.548-1.944-4.648-1.942-19.645.001-15.044.142-16.509 1.915-19.895.621-1.187 1.507-3.505 1.971-5.152.463-1.647 1.181-3.532 1.596-4.189.414-.657 1.286-2.293 1.938-3.636 1.827-3.768 3.519-6.614 4.769-8.023 1.13-1.275 3.45-4.182 5.421-6.795 1.164-1.544 8.061-7.546 10.647-9.267a52.385 52.385 0 002.993-2.158c.704-.56 2.233-1.452 3.396-1.982 1.164-.53 2.671-1.343 3.349-1.807 1.872-1.28 9.406-4.098 13.25-4.956 1.88-.419 4.736-1.173 6.347-1.675l2.929-.912 9.882-.018 9.882-.019.777-.903c.991-1.152.929-.081.935-16.001l.005-13.67 1.107-2.256c1.563-3.184 5.577-7.322 8.395-8.653 1.154-.545 2.637-1.328 3.295-1.74 1.952-1.222 9.735-3.985 13.24-4.701 1.79-.366 4.467-1.113 5.949-1.661 3.587-1.325 5.399-1.577 14.23-1.979 4.117-.188 8.658-.499 10.09-.691 7.878-1.06 14.815-1.388 19.853-.94m-20.016 12.026c-6.48.252-8.65.619-13.452 2.275-1.043.36-3.167.813-4.719 1.006-1.552.192-3.888.489-5.19.658-1.303.17-3.5.743-4.882 1.274a89.185 89.185 0 01-4.792 1.666c-11.634 3.576-13.366 9.382-3.832 12.846.855.311 2.91 1.131 4.567 1.823 1.99.83 4.145 1.435 6.347 1.779 1.866.292 4.575 1.004 6.156 1.618 4.062 1.578 4.847 1.699 13.301 2.056 15.957.674 21.666.738 33.51.375 16.563-.508 18.433-.689 22.195-2.142 1.892-.732 4.555-1.421 7.097-1.839 2.837-.466 4.955-1.04 6.997-1.895 1.611-.675 3.296-1.334 3.743-1.464 1.703-.497 6.804-3.861 7.161-4.722 1.099-2.655-3.047-5.89-11.066-8.636a298.61 298.61 0 01-4.91-1.728c-1-.368-4.149-.966-6.998-1.33-3.255-.415-6.596-1.079-8.992-1.787-6.148-1.817-23.4-2.565-42.241-1.833m71.277 31.256c-.447.144-1.619.623-2.603 1.063-.985.44-2.889 1.064-4.232 1.386-1.342.322-3.812 1.08-5.489 1.683-3.036 1.093-4.03 1.251-12.899 2.049-1.97.177-5.851.837-8.625 1.466-11.789 2.675-35.041 2.525-46.023-.297-3.408-.875-5.403-1.17-9.958-1.469-5.244-.344-5.992-.474-9.438-1.642-2.059-.697-4.768-1.516-6.022-1.818-1.253-.302-3.065-.896-4.027-1.319-2.324-1.023-3.743-1.003-4.813.067l-.837.837.132 5.103c.174 6.708.393 7.199 4.017 9.008 1.434.716 3.045 1.612 3.58 1.99.535.378 1.697 1.006 2.583 1.394.886.388 2.35 1.264 3.254 1.947 4.848 3.661 5.491 3.897 15.497 5.698 13.653 2.458 43.189 3.009 53.959 1.008a791.62 791.62 0 018.348-1.459c3.235-.55 7.316-1.481 9.113-2.08 1.79-.596 4.243-1.267 5.452-1.492 1.441-.267 2.908-.836 4.262-1.653 1.136-.685 2.93-1.654 3.987-2.153 4.529-2.14 5.339-3.929 5.339-11.797 0-7.605-.702-8.764-4.557-7.52m-146.46 22.974c-8.572.672-13.617 2.038-18.902 5.117-.792.461-2.288 1.154-3.324 1.54-1.036.385-2.517 1.237-3.29 1.893-.774.656-2.331 1.851-3.462 2.657-5.882 4.191-13.363 13.245-16.306 19.734-.548 1.21-1.339 2.648-1.756 3.195-1.042 1.367-1.351 2.285-1.942 5.784-.281 1.661-1.01 4.485-1.62 6.275-2.278 6.685-2.235 15.005.119 22.782.705 2.327 1.505 5.459 1.779 6.958.375 2.057.784 3.158 1.662 4.48.64.964 1.453 2.526 1.806 3.472 1.889 5.047 9.047 14.003 14.967 18.726 1.701 1.356 3.801 3.092 4.668 3.857 1.101.972 2.228 1.588 3.743 2.047 1.192.361 2.818 1.1 3.613 1.641.795.542 2.259 1.206 3.254 1.476.995.27 3.466 1.015 5.491 1.655 8.635 2.732 23.239 2.993 30.137.54 1.27-.452 3.794-1.224 5.61-1.716 2.067-.56 4.014-1.341 5.207-2.089 1.049-.657 2.867-1.481 4.042-1.832 1.302-.389 2.446-.973 2.93-1.496.436-.471 2.184-1.989 3.885-3.372 7.264-5.91 14.317-14.847 16.894-21.408.369-.94 1.186-2.697 1.816-3.906.862-1.653 1.231-2.884 1.491-4.964.494-3.961.824-5.914 1.619-9.602.879-4.075.753-8.233-.435-14.32-.454-2.327-.981-5.536-1.171-7.13-.678-5.691-6.345-16.241-12.155-22.63-1.21-1.331-2.201-2.518-2.201-2.638 0-.341-6.77-5.91-9.113-7.497-5.542-3.751-13.54-7.369-18.58-8.406-1.732-.356-13.159-1.375-14.448-1.289-.362.025-3.075.234-6.028.466m145.083 10.216c-1.741.489-4.19 1.36-5.44 1.937-1.488.685-3.712 1.31-6.434 1.807-2.289.418-5.04.985-6.114 1.261-3.116.799-5.492 1.153-11.338 1.685-3.014.274-7.335.708-9.602.965-12.054 1.364-19.296 1.356-32.016-.034-8.366-.915-9.535.042-6.402 5.237 1.6 2.652 4.252 8.499 4.952 10.916 1.067 3.681 1.909 4.125 8.638 4.554 6.992.445 9.599-.084 12.908-2.62.902-.691 2.509-1.654 3.571-2.141a47.389 47.389 0 003.734-1.957c2.315-1.379 10.382-4.12 14.164-4.812 1.611-.295 4.373-.979 6.137-1.52 3.982-1.221 6.567-1.5 17.51-1.889 11.605-.412 11.37-.279 11.604-6.604.168-4.542-.048-5.934-1.084-6.97-.928-.928-.807-.933-4.788.185m-134.995.502c.9.465 1.357 1.372 2.299 4.557.558 1.889 1.748 2.994 4.789 4.447 8.85 4.23 15.091 19.114 9.727 23.199-4.45 3.39-9.24.934-10.821-5.55-1.066-4.367-3.014-6.682-6.462-7.676-8.961-2.585-16.051 5.887-11.892 14.209 1.713 3.427 3.758 4.43 12.877 6.315 4.811.995 5.684 1.33 8.601 3.305 1.918 1.298 6.18 5.609 6.18 6.251 0 .213.769 1.931 1.709 3.818l1.709 3.432-.008 4.556-.007 4.557-2.019 4.129c-2.576 5.268-6.087 9.08-10.263 11.143-3.057 1.511-3.773 2.42-4.192 5.327-.496 3.438-.971 4.635-2.251 5.664-3.274 2.633-7.593.984-8.436-3.22-1.065-5.314-1.371-5.816-4.518-7.401-2.848-1.434-7.151-4.946-8.176-6.673a123.718 123.718 0 00-2.035-3.259c-3.534-5.465-3.412-12.852.245-14.898 3.591-2.009 7.65-.115 8.811 4.113 2.162 7.872 4.32 9.938 10.391 9.95 3.98.007 4.697-.232 7.038-2.347 3.988-3.602 3.718-11.597-.496-14.71-2.877-2.124-3.46-2.311-8.176-2.628-4.581-.307-4.952-.415-7.316-2.124-.805-.582-2.03-1.294-2.721-1.581-8.544-3.551-13.511-20.059-8.337-27.702.485-.716 1.332-2.18 1.882-3.254 1.262-2.464 4.594-5.509 7.79-7.119 3.287-1.654 4.712-3.133 5.589-5.794 1.185-3.597 4.861-4.912 8.489-3.036m133.606 23.611c-3.095.299-5.556.745-11.392 2.067-1.969.446-5.337.974-7.485 1.175-4.716.439-6.649.928-14.646 3.702-12.133 4.208-13.252 8.406-3.487 13.082 3.775 1.808 5.243 2.278 10.077 3.225 1.476.289 3.752 1.033 5.057 1.652 2.798 1.329 4.68 1.596 14.716 2.083 3.759.182 8.665.494 10.903.692 6.399.568 16.654.526 23.922-.098 3.58-.307 8.779-.645 11.554-.751 6.938-.264 8.985-.609 12.477-2.101a26.966 26.966 0 016.161-1.793c3.984-.641 3.435-.444 10.328-3.702 3.413-1.613 5.351-3.257 5.468-4.64.141-1.658-2.182-4.216-4.675-5.148a40.087 40.087 0 01-3.357-1.465c-.866-.439-2.877-1.166-4.468-1.616a123.15 123.15 0 01-5.276-1.634c-1.607-.549-4.308-1.033-8.3-1.486-3.254-.37-7.382-1.042-9.172-1.495-6.409-1.622-8.872-1.832-22.62-1.935-7.071-.054-14.174.03-15.785.186m-65.419 17.303c-1.297.744-1.389 1.234-1.627 8.713-.32 10.011-.127 10.427 4.881 10.503 4.671.071 4.72-.03 4.72-9.682 0-8.017-.185-8.991-1.827-9.615-1.13-.43-5.353-.374-6.147.081m135.069 14.45c-1.074.451-3.344 1.194-5.045 1.651-1.7.456-3.604 1.089-4.231 1.406-2.359 1.193-4.312 1.61-9.164 1.956-3.82.272-6.218.655-10.201 1.631-11.739 2.875-43.437 2.881-53.214.01-1.905-.56-4.93-1.152-6.835-1.338-7.774-.762-8.774-.935-11.086-1.919-1.279-.544-3.226-1.216-4.326-1.493a82.193 82.193 0 01-4.474-1.313c-4.596-1.502-4.954-.84-4.794 8.872.099 6.068.159 6.638.79 7.486 1.183 1.591 5.837 4.196 9.214 5.158 1.684.48 3.991 1.222 5.126 1.65 1.136.427 3.786 1.081 5.889 1.453 2.103.373 5.215 1.024 6.916 1.449 6.204 1.548 7.616 1.623 30.268 1.617 22.681-.007 25.005-.128 30.888-1.607 1.718-.432 4.797-1.098 6.843-1.481 2.045-.382 4.462-.98 5.37-1.328.908-.349 3.12-1.06 4.916-1.582 5.679-1.65 11.374-5.756 12.19-8.788.653-2.425.309-12.813-.453-13.653-.82-.906-2.154-.859-4.587.163m-139.24 17.367c-1.864.594-3.187 1.978-4.485 4.693-1.455 3.043-3.574 6.757-5.288 9.265-2.949 4.315.219 5.606 15.798 6.436 6.727.358 6.918.06 6.583-10.25-.303-9.344-.321-9.378-5.116-9.823a5312.82 5312.82 0 00-4.623-.43c-1.074-.1-2.365-.051-2.869.109m138.426 15.275c-1.163.307-2.897.963-3.853 1.456-1.508.778-5.405 1.819-13.692 3.659-1.147.255-4.589.75-7.648 1.1-3.06.35-7.321.995-9.469 1.432-11.52 2.345-28.186 2.349-39.674.009-2.166-.442-6.429-1.1-9.472-1.464-3.043-.363-7.949-1.228-10.903-1.921-2.953-.693-5.883-1.36-6.509-1.483-.627-.122-2.238-.752-3.58-1.398-3.282-1.581-5.898-1.684-6.958-.274-.648.863-.691 1.305-.691 7.16 0 8.049.256 8.561 5.737 11.48 4.842 2.579 5.93 3.006 8.975 3.523 1.648.28 3.774.853 4.726 1.274 3.382 1.496 5.071 1.832 13.434 2.677 4.655.471 9.561.992 10.904 1.158 3.972.493 20.877.719 25.712.344 4.956-.384 19.106-1.839 22.722-2.336 1.31-.18 3.593-.829 5.074-1.442 1.481-.613 4.225-1.405 6.097-1.76 4.003-.759 10.079-3.633 12.903-6.103 2.189-1.915 2.447-3.082 2.299-10.401-.158-7.766-.53-8.173-6.134-6.69" fill="#1c1c1c"/></g></svg>