<svg xmlns="http://www.w3.org/2000/svg" width="400" height="362.963"><g fill-rule="evenodd"><path d="M319.238 56.027c-.799.267-2.46 1.019-3.692 1.671-1.833.97-3.352 1.371-8.349 2.205-3.359.561-7.496 1.263-9.193 1.559-7.377 1.291-17.853 1.113-28.354-.481-2.518-.383-7.173-.869-10.345-1.082-3.171-.213-7.971-.561-10.666-.775-24.484-1.938-33.158.599-41.747 12.211-1.333 1.803-3.765 4.489-5.405 5.969-1.64 1.481-3.869 3.845-4.954 5.253a331.554 331.554 0 01-2.846 3.65c-2.909 3.628-5.861 14.615-6.933 25.802-.639 6.667-.762 34.296-.171 38.445.5 3.514 2.754 11.277 3.845 13.242.497.895 1.353 2.691 1.902 3.993.549 1.301 1.529 3.1 2.177 3.999.648.898 1.864 2.652 2.701 3.896.837 1.245 3.126 4.308 5.086 6.808 4.379 5.581 4.24 5.081 4.238 15.246-.003 11.64-.299 12.377-5.387 13.428-6.043 1.247-14.246 3.754-17.116 5.23-1.098.564-3.106 1.391-4.461 1.837-1.356.446-3.316 1.384-4.356 2.085-1.04.701-2.871 1.769-4.069 2.373-10.663 5.375-25.784 21.303-30.917 32.567-.681 1.493-1.484 2.986-1.785 3.32-.711.785-3.497 7.484-5.042 12.121-.665 1.996-1.621 4.61-2.124 5.808-.503 1.197-1.093 3.566-1.311 5.263-.556 4.316-1.055 6.318-2.213 8.87-1.444 3.187-1.896 6.025-1.747 10.98l.13 4.322 1.495 2.342c.822 1.288 1.884 3.073 2.36 3.965.999 1.872 5.777 5.339 8.849 6.422 2.283.805 49.335 1.227 52.154.467 5.31-1.429 6.395-7.45 1.91-10.6-2.257-1.585-4.265-1.719-25.958-1.721-27.491-.003-26.922.231-26.314-10.836.382-6.958.808-9.383 2.147-12.215.66-1.397 1.579-4.092 2.041-5.989 3.169-12.996 14.035-29.582 24.943-38.076 5.372-4.183 5.839-4.482 12.946-8.285 2.943-1.575 4.78.487 15.79 17.725a724.338 724.338 0 004.9 7.517c1.626 2.459 3.366 5.182 3.869 6.051a29.433 29.433 0 002.024 2.97c.611.764 1.557 2.157 2.103 3.094 2.647 4.541 6.592 6.573 9.53 4.908 2.01-1.14 6.466-5.224 8.862-8.122 1.459-1.765 4.388-5.005 6.51-7.201 2.121-2.196 4.643-4.891 5.603-5.989 2.851-3.26 4.448-3.919 6.668-2.752 1.06.558 8.606 8.437 11.06 11.548 2.518 3.192 11.128 11.798 12.415 12.409 2.863 1.358 6.356.198 8.761-2.911 1.482-1.915 6.66-9.695 7.949-11.942.572-.998 1.5-2.352 2.062-3.008.562-.656 1.448-2.045 1.969-3.086.522-1.04 1.425-2.545 2.008-3.344.583-.798 2.875-4.228 5.093-7.622s4.452-6.801 4.964-7.571c2.018-3.033 4.634-3.856 7.046-2.217.745.506 2.113 1.245 3.039 1.642.927.398 2.439 1.347 3.359 2.109.92.762 2.632 1.994 3.804 2.737 7.479 4.741 19.756 20.426 22.207 28.371.469 1.519 1.244 3.278 1.721 3.909 1.391 1.835 1.697 2.596 2.437 6.058.384 1.799 1.259 4.779 1.943 6.621.685 1.842 1.358 4.085 1.496 4.983.138.899.659 3.43 1.159 5.626 1.594 7.01.841 9.936-3.048 11.851l-1.734.854-49.546.181c-53.001.194-50.878.116-52.951 1.956-2.739 2.431-2.302 8.245.744 9.907 1.569.857 103.94 1.044 107.126.196 2.174-.578 8.461-4.306 9.32-5.525 4.557-6.468 5.164-14.242 2.027-25.953a114.829 114.829 0 01-1.477-6.352c-.331-1.697-1.234-4.474-2.006-6.171-.771-1.697-1.668-4.392-1.993-5.989-.531-2.61-1.845-5.634-2.671-6.144-.172-.106-.681-1.179-1.131-2.384-.805-2.152-3.398-7.2-5.841-11.371-5.389-9.199-19.464-22.471-27.917-26.323-1.098-.5-2.813-1.514-3.811-2.253-.998-.739-2.713-1.633-3.811-1.985-1.098-.353-3.059-1.191-4.356-1.864-2.759-1.429-10.323-3.833-15.245-4.845-6.909-1.419-7.032-1.631-7.199-12.467-.181-11.672.292-13.577 4.493-18.119 2.575-2.784 6.239-7.984 7.651-10.857a38.528 38.528 0 012.171-3.747c.743-1.104 1.448-2.81 1.799-4.356.572-2.515 1.363-5.025 2.8-8.893.643-1.73.772-3.183.967-10.889.259-10.262.262-10.273 3.558-12.822 6.943-5.369 12.806-13.838 15.131-21.857a110.943 110.943 0 011.792-5.545c1.535-4.255 1.798-7.931 1.832-25.656.035-17.91-.015-18.395-2.052-19.845-1.398-.996-6.162-1.298-8.442-.535m-211.978 5.18c-13.815 2.113-20.835 3.981-24.959 6.639-.647.417-2.355 1.332-3.795 2.033-2.654 1.292-5.097 2.987-10.564 7.332-8.638 6.863-18.303 22.166-19.797 31.345-.311 1.911-1.056 4.7-1.656 6.198-2.523 6.302-2.574 16.808-.118 24.084.809 2.396 1.728 5.752 2.042 7.459.953 5.187 4 11.08 10.594 20.491 6.827 9.744 20.957 19.542 31.946 22.151 2.011.478 5.001 1.365 6.645 1.971 6.746 2.487 19.1 2.488 25.915 0 1.618-.59 3.355-1.073 3.859-1.073.893 0 9.096 3.83 10.933 5.105 3.294 2.287 22.683 11.592 24.154 11.592 4.284 0 6.464-4.653 5.254-11.213-.39-2.118-.888-7.199-1.105-11.292-.217-4.093-.625-8.503-.906-9.8-1.809-8.354-1.823-8.496-1.016-10.026 2.425-4.591 3.412-6.327 4.562-8.02.707-1.042 1.459-2.703 1.671-3.693.213-.989.962-3.189 1.665-4.888 4.282-10.345 4.39-31.87.205-41.099-.594-1.31-1.433-3.689-1.864-5.286-.559-2.075-1.184-3.411-2.188-4.681-.772-.977-1.789-2.639-2.26-3.694-2.832-6.344-15.577-18.944-22.58-22.324-1.211-.584-2.952-1.578-3.869-2.209-.917-.631-3.112-1.621-4.877-2.199-1.765-.579-4.065-1.395-5.112-1.814-3.934-1.576-19.167-3.641-22.779-3.089m138.475 9.94c2.695.197 6.697.778 8.893 1.289 14.382 3.35 45.967 3.738 54.38.668 8.104-2.957 9.14-2.294 9.087 5.812-.038 5.82-.524 9.521-1.808 13.772-.491 1.626-1.286 4.916-1.766 7.312-1.784 8.902-7.467 17.208-13.977 20.428-4.9 2.424-31.812.228-45.372-3.702a114.13 114.13 0 00-5.807-1.498c-1.514-.336-3.866-1.229-5.298-2.012-1.417-.775-3.647-1.739-4.956-2.143-1.309-.405-3.171-1.28-4.139-1.946-8.198-5.638-12.138-6.196-16.362-2.317-11.752 10.794-17.587 13.015-18.141 6.906-1.036-11.428 3.371-22.066 11.478-27.704 1.751-1.218 2.613-2.136 3.474-3.698 2.665-4.835 5.251-7.324 10.372-9.98 2.93-1.52 9.821-1.931 19.942-1.187m-126.481 4.014c3.394.472 12.19 3.299 14.007 4.501.726.481 2.359 1.368 3.63 1.974 5.991 2.852 15.323 12.014 18.474 18.138.705 1.37 1.718 3.15 2.252 3.957 3.619 5.469 6.027 21.714 4.64 31.301-.521 3.601-3.176 11.908-4.523 14.151-.659 1.098-1.519 2.732-1.911 3.63-.391.898-1.443 2.701-2.336 4.006-2.818 4.114-3.093 9.538-1.163 22.953.942 6.548-1.333 7.592-7.72 3.542-.937-.595-2.543-1.325-3.568-1.623-1.026-.298-2.81-1.219-3.965-2.046-3.852-2.758-5.758-2.936-18.64-1.736l-8.43.784-7.519-.78-7.518-.78-4.923-2.301c-12.746-5.958-22.508-15.403-26.514-25.65-.429-1.097-1.281-2.889-1.893-3.981-2.046-3.648-3.024-13.045-2.438-23.405.495-8.74.589-9.235 2.543-13.336.98-2.056 1.782-3.914 1.782-4.128 0-.215 1.038-2.118 2.307-4.231 11.17-18.598 31.336-28.012 53.426-24.94m-12.357 11.086c-9.592 2.385-16.758 10.313-17.174 18.998-.406 8.495 6.722 12.914 11.34 7.031 1.56-1.988 1.894-2.852 2.752-7.135 1.093-5.448 8.946-6.687 10.738-1.693 1.339 3.735.592 6.304-3.364 11.566-9.397 12.5-7.391 29.503 3.071 26.028 3.428-1.139 4.413-3.126 4.781-9.645.297-5.262.458-5.687 3.928-10.367 6.126-8.262 7.543-14.351 4.738-20.358-.732-1.567-1.599-3.615-1.926-4.55-1.834-5.235-13.341-11.253-18.884-9.875m122.867 34.906c4.576 2.12 6.367 3.011 7.836 3.896.817.491 2.729 1.132 4.249 1.423 1.521.291 3.957 1.031 5.413 1.644 1.547.653 5.512 1.71 9.544 2.546 10.465 2.171 9.673 2.08 28.139 3.23 8.078.503 8.178.64 8.12 11.117-.046 8.228-.513 11.456-1.995 13.793-.588.927-1.641 2.777-2.34 4.11-2.317 4.418-7.857 11.701-11.661 15.33-6.595 6.293-16.619 13.207-20.801 14.348-1.102.3-3.146.988-4.544 1.528-3.533 1.365-7.058 1.366-10.345.003-1.297-.538-3.265-1.227-4.373-1.531-1.107-.304-2.986-1.184-4.174-1.955a245.854 245.854 0 00-3.878-2.461c-12.847-7.925-25.782-23.704-28.093-34.268-.597-2.727-1.092-14.987-.708-17.544.447-2.981 2.156-4.476 7.188-6.287 1.452-.523 3.327-1.422 4.166-1.997.839-.576 2.263-1.363 3.164-1.75.902-.386 3.156-1.936 5.009-3.445 4.665-3.797 5.362-3.917 10.084-1.73m-119.601 32.709c-4.008 1.85-5.114 5.711-2.714 9.478 3.016 4.734 9.341 3.386 10.918-2.326 1.19-4.31-4.192-9.003-8.204-7.152m113.104 46.559c.679.231 1.934.896 2.789 1.477.855.582 2.669 1.436 4.032 1.9 1.363.463 3.113 1.262 3.89 1.775 4.851 3.202 20.303 3.328 25.216.206.915-.582 2.617-1.385 3.782-1.786 1.166-.401 2.87-1.211 3.787-1.799 5.41-3.472 7.055-2.642 7.064 3.564.009 5.799-.316 6.294-7.039 10.724-2.296 1.512-4.823 3.2-5.615 3.751-.792.551-2.671 1.747-4.174 2.658-1.504.911-4.007 2.439-5.563 3.394-4.557 2.799-5.4 2.697-11.69-1.415-1.597-1.044-3.476-2.188-4.174-2.543-.699-.354-2.187-1.317-3.307-2.139a79.154 79.154 0 00-3.764-2.584c-9.319-5.876-9.263-5.805-9.263-11.917 0-5.228.857-6.348 4.029-5.266m-11.134 22.846c.783.218 3.072 1.501 5.085 2.852 2.014 1.351 4.549 2.906 5.635 3.456 1.085.55 2.799 1.615 3.807 2.367 1.009.752 2.381 1.644 3.051 1.983 1.791.905 5.135 4.275 5.135 5.174 0 2.099-12.805 16.073-14.728 16.073-1.139 0-3.556-2.19-4.772-4.325-.521-.915-1.233-1.99-1.582-2.39-.349-.399-1.424-1.974-2.39-3.5a234.531 234.531 0 00-3.067-4.718c-7.845-11.63-8.869-14.497-5.753-16.108 2.1-1.086 7.142-1.54 9.579-.864m77.593.349c3.436.917 3.717 4.011.759 8.36-1.005 1.479-3.473 5.302-5.483 8.496-2.011 3.194-4.114 6.437-4.674 7.206a76.144 76.144 0 00-2.206 3.267c-1.742 2.737-2.667 3.528-4.4 3.76l-1.525.205-3.922-3.952c-3.702-3.73-7.096-7.556-8.489-9.569-1.592-2.301-.059-4.953 4.429-7.659a106.037 106.037 0 004.025-2.557c4.632-3.162 12.512-7.92 13.365-8.07 1.369-.241 6.519.084 8.121.513m-71.906 83.946c-3.347.887-5.056 5.151-3.379 8.436 2.989 5.858 12.505 2.838 11.53-3.659-.548-3.655-4.234-5.815-8.151-4.777" fill="#ecb805"/><path d="M0 181.488v181.488h400V0H0v181.488M327.68 56.562c2.037 1.45 2.087 1.935 2.052 19.845-.034 17.725-.297 21.401-1.832 25.656a110.943 110.943 0 00-1.792 5.545c-2.325 8.019-8.188 16.488-15.131 21.857-3.296 2.549-3.299 2.56-3.558 12.822-.195 7.706-.324 9.159-.967 10.889-1.437 3.868-2.228 6.378-2.8 8.893-.351 1.546-1.056 3.252-1.799 4.356a38.528 38.528 0 00-2.171 3.747c-1.412 2.873-5.076 8.073-7.651 10.857-4.201 4.542-4.674 6.447-4.493 18.119.167 10.836.29 11.048 7.199 12.467 4.922 1.012 12.486 3.416 15.245 4.845 1.297.673 3.258 1.511 4.356 1.864 1.098.352 2.813 1.246 3.811 1.985.998.739 2.713 1.753 3.811 2.253 7.334 3.343 17.685 12.565 25.59 22.8 2.095 2.713 6.865 11.412 8.168 14.894.45 1.205.959 2.278 1.131 2.384.826.51 2.14 3.534 2.671 6.144.325 1.597 1.222 4.292 1.993 5.989.772 1.697 1.675 4.474 2.006 6.171.331 1.697.996 4.555 1.477 6.352 3.137 11.711 2.53 19.485-2.027 25.953-.859 1.219-7.146 4.947-9.32 5.525-3.186.848-105.557.661-107.126-.196-3.046-1.662-3.483-7.476-.744-9.907 2.073-1.84-.05-1.762 52.951-1.956l49.546-.181 1.734-.854c3.889-1.915 4.642-4.841 3.048-11.851-.5-2.196-1.021-4.727-1.159-5.626-.138-.898-.811-3.141-1.496-4.983-.684-1.842-1.559-4.822-1.943-6.621-.74-3.462-1.046-4.223-2.437-6.058-.477-.631-1.252-2.39-1.721-3.909-2.451-7.945-14.728-23.63-22.207-28.371-1.172-.743-2.884-1.975-3.804-2.737-.92-.762-2.432-1.711-3.359-2.109-.926-.397-2.294-1.136-3.039-1.642-2.412-1.639-5.028-.816-7.046 2.217-.512.77-2.746 4.177-4.964 7.571-2.218 3.394-4.51 6.824-5.093 7.622-.583.799-1.486 2.304-2.008 3.344-.521 1.041-1.407 2.43-1.969 3.086-.562.656-1.49 2.01-2.062 3.008-1.289 2.247-6.467 10.027-7.949 11.942-2.405 3.109-5.898 4.269-8.761 2.911-1.287-.611-9.897-9.217-12.415-12.409-2.454-3.111-10-10.99-11.06-11.548-2.22-1.167-3.817-.508-6.668 2.752-.96 1.098-3.482 3.793-5.603 5.989-2.122 2.196-5.051 5.436-6.51 7.201-2.396 2.898-6.852 6.982-8.862 8.122-2.938 1.665-6.883-.367-9.53-4.908-.546-.937-1.492-2.33-2.103-3.094a29.433 29.433 0 01-2.024-2.97c-.503-.869-2.243-3.592-3.869-6.051a724.338 724.338 0 01-4.9-7.517c-11.01-17.238-12.847-19.3-15.79-17.725-7.107 3.803-7.574 4.102-12.946 8.285-10.908 8.494-21.774 25.08-24.943 38.076-.462 1.897-1.381 4.592-2.041 5.989-1.339 2.832-1.765 5.257-2.147 12.215-.608 11.067-1.177 10.833 26.314 10.836 21.693.002 23.701.136 25.958 1.721 4.485 3.15 3.4 9.171-1.91 10.6-2.819.76-49.871.338-52.154-.467-3.072-1.083-7.85-4.55-8.849-6.422-.476-.892-1.538-2.677-2.36-3.965l-1.495-2.342-.13-4.322c-.149-4.955.303-7.793 1.747-10.98 1.158-2.552 1.657-4.554 2.213-8.87.218-1.697.808-4.066 1.311-5.263.503-1.198 1.459-3.812 2.124-5.808 1.545-4.637 4.331-11.336 5.042-12.121.301-.334 1.104-1.827 1.785-3.32 5.133-11.264 20.254-27.192 30.917-32.567 1.198-.604 3.029-1.672 4.069-2.373 1.04-.701 3-1.639 4.356-2.085 1.355-.446 3.363-1.273 4.461-1.837 2.87-1.476 11.073-3.983 17.116-5.23 5.088-1.051 5.384-1.788 5.387-13.428.002-10.165.141-9.665-4.238-15.246-1.96-2.5-4.249-5.563-5.086-6.808a178.502 178.502 0 00-2.701-3.896c-.648-.899-1.628-2.698-2.177-3.999-.549-1.302-1.405-3.098-1.902-3.993-1.091-1.965-3.345-9.728-3.845-13.242-.591-4.149-.468-31.778.171-38.445 1.072-11.187 4.024-22.174 6.933-25.802.48-.599 1.761-2.241 2.846-3.65 1.085-1.408 3.314-3.772 4.954-5.253 1.64-1.48 4.072-4.166 5.405-5.969 8.589-11.612 17.263-14.149 41.747-12.211 2.695.214 7.495.562 10.666.775 3.172.213 7.827.699 10.345 1.082 10.501 1.594 20.977 1.772 28.354.481 1.697-.296 5.834-.998 9.193-1.559 4.997-.834 6.516-1.235 8.349-2.205 4.538-2.401 9.682-2.882 12.134-1.136M121.509 62.41c3.645.618 7.483 1.467 8.53 1.886 1.047.419 3.347 1.235 5.112 1.814 1.765.578 3.96 1.568 4.877 2.199.917.631 2.658 1.625 3.869 2.209 7.003 3.38 19.748 15.98 22.58 22.324.471 1.055 1.488 2.717 2.26 3.694 1.004 1.27 1.629 2.606 2.188 4.681.431 1.597 1.27 3.976 1.864 5.286 4.185 9.229 4.077 30.754-.205 41.099-.703 1.699-1.452 3.899-1.665 4.888-.212.99-.964 2.651-1.671 3.693-1.15 1.693-2.137 3.429-4.562 8.02-.807 1.53-.793 1.672 1.016 10.026.281 1.297.689 5.707.906 9.8.217 4.093.715 9.174 1.105 11.292 1.21 6.56-.97 11.213-5.254 11.213-1.471 0-20.86-9.305-24.154-11.592-1.837-1.275-10.04-5.105-10.933-5.105-.504 0-2.241.483-3.859 1.073-6.815 2.488-19.169 2.487-25.915 0-1.644-.606-4.634-1.493-6.645-1.971-10.989-2.609-25.119-12.407-31.946-22.151-6.594-9.411-9.641-15.304-10.594-20.491-.314-1.707-1.233-5.063-2.042-7.459-2.456-7.276-2.405-17.782.118-24.084.6-1.498 1.345-4.287 1.656-6.198 2.149-13.202 17.068-32.207 30.361-38.677 1.44-.701 3.148-1.616 3.795-2.033 4.124-2.658 11.144-4.526 24.959-6.639 2.286-.349 7.87.122 14.249 1.203m107.953 8.743c-5.17.752-10.748 5.186-14.041 11.161-.861 1.562-1.723 2.48-3.474 3.698-8.107 5.638-12.514 16.276-11.478 27.704.554 6.109 6.389 3.888 18.141-6.906 4.224-3.879 8.164-3.321 16.362 2.317.968.666 2.83 1.541 4.139 1.946 1.309.404 3.539 1.368 4.956 2.143 1.432.783 3.784 1.676 5.298 2.012a114.13 114.13 0 015.807 1.498c13.56 3.93 40.472 6.126 45.372 3.702 6.51-3.22 12.193-11.526 13.977-20.428.48-2.396 1.275-5.686 1.766-7.312 1.284-4.251 1.77-7.952 1.808-13.772.053-8.106-.983-8.769-9.087-5.812-8.413 3.07-39.998 2.682-54.38-.668-6.158-1.434-19.467-2.113-25.166-1.283m-127.879 4.009c-8.39 1.232-19.678 6.929-26.564 13.404-4.247 3.995-11.498 13.936-11.498 15.766 0 .214-.802 2.072-1.782 4.128-1.954 4.101-2.048 4.596-2.543 13.336-.586 10.36.392 19.757 2.438 23.405.612 1.092 1.464 2.884 1.893 3.981 4.006 10.247 13.768 19.692 26.514 25.65l4.923 2.301 7.518.78 7.519.78 8.43-.784c12.882-1.2 14.788-1.022 18.64 1.736 1.155.827 2.939 1.748 3.965 2.046 1.025.298 2.631 1.028 3.568 1.623 6.387 4.05 8.662 3.006 7.72-3.542-1.93-13.415-1.655-18.839 1.163-22.953.893-1.305 1.945-3.108 2.336-4.006.392-.898 1.252-2.532 1.911-3.63 1.347-2.243 4.002-10.55 4.523-14.151 1.387-9.587-1.021-25.832-4.64-31.301-.534-.807-1.547-2.587-2.252-3.957-3.151-6.124-12.483-15.286-18.474-18.138-1.271-.606-2.904-1.493-3.63-1.974-5.644-3.735-21.526-5.991-31.678-4.5m14.753 12.896c4.856 2.172 8.458 5.247 9.445 8.064.327.935 1.194 2.983 1.926 4.55 2.805 6.007 1.388 12.096-4.738 20.358-3.47 4.68-3.631 5.105-3.928 10.367-.368 6.519-1.353 8.506-4.781 9.645-10.462 3.475-12.468-13.528-3.071-26.028 3.956-5.262 4.703-7.831 3.364-11.566-1.792-4.994-9.645-3.755-10.738 1.693-.858 4.283-1.192 5.147-2.752 7.135-4.618 5.883-11.746 1.464-11.34-7.031.356-7.44 5.111-13.942 12.528-17.132 6.382-2.744 8.056-2.751 14.085-.055m107.802 31.785c-.599.164-2.605 1.532-4.458 3.04-1.853 1.509-4.107 3.059-5.009 3.445-.901.387-2.325 1.174-3.164 1.75-.839.575-2.714 1.474-4.166 1.997-5.032 1.811-6.741 3.306-7.188 6.287-.384 2.557.111 14.817.708 17.544 2.311 10.564 15.246 26.343 28.093 34.268.945.583 2.69 1.69 3.878 2.461 1.188.771 3.067 1.651 4.174 1.955 1.108.304 3.076.993 4.373 1.531 3.287 1.363 6.812 1.362 10.345-.003 1.398-.54 3.442-1.228 4.544-1.528 4.182-1.141 14.206-8.055 20.801-14.348 3.804-3.629 9.344-10.912 11.661-15.33.699-1.333 1.752-3.183 2.34-4.11 1.482-2.337 1.949-5.565 1.995-13.793.058-10.477-.042-10.614-8.12-11.117-18.466-1.15-17.674-1.059-28.139-3.23-4.032-.836-7.997-1.893-9.544-2.546-1.456-.613-3.892-1.353-5.413-1.644-1.52-.291-3.432-.932-4.249-1.423-2.573-1.55-9.734-4.88-11.284-5.246-.599-.142-1.579-.124-2.178.04m-110.373 33.842c5.713 2.387 6.295 8.632 1.104 11.84-3.395 2.099-7.858-.529-8.7-5.121-.731-3.989 4.036-8.206 7.596-6.719m106.225 47.271c-1.705 2.168-.912 9.774 1.225 11.748.893.825 1.93 1.523 7.286 4.9.95.599 2.644 1.762 3.764 2.584 1.12.822 2.608 1.785 3.307 2.139.698.355 2.577 1.499 4.174 2.543 6.29 4.112 7.133 4.214 11.69 1.415 1.556-.955 4.059-2.483 5.563-3.394 1.503-.911 3.382-2.107 4.174-2.658.792-.551 3.319-2.239 5.615-3.751 6.723-4.43 7.048-4.925 7.039-10.724-.009-6.206-1.654-7.036-7.064-3.564-.917.588-2.621 1.398-3.787 1.799-1.165.401-2.867 1.204-3.782 1.786-2.852 1.813-4.207 2.026-12.733 2.007-8.436-.019-9.426-.195-12.483-2.213-.777-.513-2.527-1.312-3.89-1.775-1.363-.464-3.177-1.318-4.032-1.9-3.032-2.061-4.951-2.359-6.066-.942m-14.472 22.316c-6.682 1.113-6.288 3.509 2.789 16.967a234.531 234.531 0 013.067 4.718c.966 1.526 2.041 3.101 2.39 3.5.349.4 1.061 1.475 1.582 2.39 1.216 2.135 3.633 4.325 4.772 4.325 1.923 0 14.728-13.974 14.728-16.073 0-.899-3.344-4.269-5.135-5.174-.67-.339-2.042-1.231-3.051-1.983-1.008-.752-2.722-1.817-3.807-2.367-1.086-.55-3.621-2.105-5.635-3.456-4.885-3.278-6.6-3.695-11.7-2.847m76.087-.169c-.853.15-8.733 4.908-13.365 8.07-.899.613-2.71 1.764-4.025 2.557-4.488 2.706-6.021 5.358-4.429 7.659 1.393 2.013 4.787 5.839 8.489 9.569l3.922 3.952 1.525-.205c1.733-.232 2.658-1.023 4.4-3.76a76.144 76.144 0 012.206-3.267c.56-.769 2.663-4.012 4.674-7.206 2.01-3.194 4.478-7.017 5.483-8.496 2.958-4.349 2.677-7.443-.759-8.36-1.602-.429-6.752-.754-8.121-.513m-58.69 84.918c4.017 2.031 4.094 7.966.134 10.233-1.891 1.082-5.837 1.018-7.09-.116-5.551-5.02.276-13.495 6.956-10.117" fill="#1c1c1c"/></g></svg>