<svg xmlns="http://www.w3.org/2000/svg" width="400" height="396.078"><g fill-rule="evenodd"><path d="M100.819 44.188c-1.549.673-2.207 1.915-3.053 5.762-1.244 5.661-3.014 7.809-7.578 9.198-1.526.465-4.202 1.54-5.946 2.391-4.407 2.148-7.053 2.051-11.313-.415-3.261-1.888-5.625-2.569-7.589-2.187-1.694.33-25.463 23.84-25.912 25.629-.519 2.066.069 4.556 1.769 7.492 2.757 4.761 2.802 6.889.266 12.54-.749 1.668-1.636 4.096-1.971 5.395-1.031 3.997-3.801 6.198-9.537 7.58-6.334 1.525-5.971.189-5.971 21.989 0 21.505-.343 20.458 7.189 21.938 5.633 1.107 6.924 2.231 8.455 7.366.486 1.628 1.383 3.951 1.995 5.164 2.522 4.995 2.468 7.073-.303 11.73-2.152 3.615-2.658 6.607-1.498 8.85.999 1.933 24.109 24.925 25.37 25.242 1.777.446 3.761-.119 6.35-1.805 5.126-3.34 9.292-3.081 18.132 1.124 5.992 2.851 6.506 3.447 8.075 9.372 1.931 7.294.155 6.739 21.577 6.739 21.262 0 20.827.144 22.335-7.373 1.058-5.274 1.444-5.781 6.232-8.174 11.851-5.923 15.801-5.039 16.433 3.676.401 5.523.909 7.86 2.386 10.972.753 1.585 1.731 4.546 2.175 6.58.444 2.035 1.314 4.711 1.934 5.947.62 1.236 1.261 2.694 1.424 3.239.663 2.211 5.128 11.416 6.345 13.082.717.981 1.597 2.489 1.955 3.352.359.862 1.389 2.544 2.29 3.737 4.348 5.76 5.007 8.582 3.319 14.221-.529 1.767-1.247 4.734-1.595 6.592-.348 1.858-1.327 5.126-2.174 7.263-.903 2.275-1.653 4.95-1.811 6.46-.411 3.938-.915 5.874-2.372 9.118-.8 1.781-1.669 4.747-2.165 7.393-.456 2.43-1.192 5.463-1.636 6.739-2.134 6.136-2.924 11.855-1.77 12.813 1.638 1.36 8.463.713 14.788-1.402 8.062-2.695 9.188-2.17 14.563 6.785 9.768 16.275 11.42 18.779 12.828 19.447 2.467 1.171 3.88-.236 4.813-4.798.268-1.308 1.179-3.716 2.024-5.351 1.024-1.98 1.789-4.241 2.292-6.767.419-2.109 1.288-4.851 1.957-6.176.662-1.311 1.493-3.529 1.847-4.929 4.445-17.556 7.336-21.059 14.407-17.457 2.413 1.228 6.346 2.774 11.368 4.468 4.268 1.439 9.593.22 20.607-4.716 5.727-2.567 7.313-2.065 8.597 2.723.431 1.605 1.288 4.079 1.905 5.497.617 1.419 1.517 4.007 2.001 5.751.483 1.744 1.212 4.018 1.618 5.052.407 1.035 1.199 3.513 1.759 5.508.561 1.994 1.475 4.523 2.03 5.62.556 1.097 1.346 3.659 1.755 5.693.836 4.155 1.618 5.907 3.729 8.355 2.423 2.81 3.63 2.299 6.743-2.856a345.161 345.161 0 013.143-5.088 151.119 151.119 0 003.02-5.039c8.125-14.313 8.703-14.704 17.424-11.778 10.328 3.465 16.846 2.693 15.518-1.839-.265-.905-.901-3.974-1.414-6.821-.634-3.526-1.307-5.926-2.111-7.532-1.59-3.177-1.953-4.437-2.655-9.209-.374-2.546-1.039-5.079-1.77-6.744-.644-1.468-1.56-4.625-2.036-7.017-.475-2.392-1.04-4.798-1.255-5.347-.836-2.135-3.61-13.394-3.774-15.318-.21-2.454.157-3.245 4.878-10.501 1.861-2.861 3.677-5.939 4.035-6.84.359-.902 1.32-2.676 2.136-3.945.817-1.268 1.786-3.141 2.154-4.162.368-1.021 1.265-3.195 1.994-4.83 2.534-5.684 4.516-11.612 5.35-16.001.461-2.429 1.454-6.265 2.206-8.525.753-2.261 1.535-5.561 1.739-7.334.561-4.875.492-80.438-.074-81.68-.967-2.122-1.741-2.218-17.845-2.219-16.889 0-21.445-.325-27.844-1.987-2.503-.65-6.57-1.444-9.037-1.764-3.83-.498-4.932-.815-7.538-2.172-1.679-.874-4.266-1.882-5.748-2.24-2.928-.707-15.654-6.79-19.676-9.405-5.934-3.858-9.171-3.819-15.132.185-3.509 2.357-16.498 8.539-19.419 9.241-1.523.366-3.752 1.261-4.955 1.988-6.073 3.673-9.256 2.772-9.996-2.833-.68-5.14-1.338-5.843-6.551-7-5.523-1.226-7.015-2.443-9.501-7.748-4.329-9.238-4.646-13.249-1.465-18.531 3.56-5.913 3.714-5.62-10.179-19.479-15.017-14.979-15.42-15.168-22.395-10.537-3.354 2.227-6.436 2.195-11.475-.119-1.962-.901-4.46-1.851-5.55-2.111-3.896-.929-5.928-3.623-6.932-9.189-.589-3.262-1.6-4.978-3.371-5.718-1.972-.824-35.446-.815-37.342.01m28.508 11.435c1.765.744 2.904 2.466 3.278 4.958.657 4.385 1.677 5.523 5.721 6.379 1.183.25 3.413 1.149 4.955 1.998 1.542.848 3.964 1.836 5.381 2.196 1.417.359 3.21 1.066 3.984 1.571 5.934 3.87 8.31 4.086 13.723 1.251 4.671-2.446 5.023-2.377 9.573 1.877 10.638 9.945 11.199 11.147 8.069 17.273-2.218 4.34-2.174 5.054.681 10.909 2.58 5.293 5.933 13.485 6.924 16.915.607 2.104 2.225 4.306 3.185 4.336 4.382.138 7.95 1.642 8.364 3.527.775 3.529-1.343 4.481-10.103 4.541-10.13.07-10.619-.409-12.279-12.046-.318-2.227-.958-4.067-2.551-7.334-1.17-2.398-2.222-4.651-2.339-5.007-1.345-4.096-12.877-17.287-18.906-21.625a279.83 279.83 0 01-4.487-3.291c-.833-.633-2.439-1.452-3.568-1.82-1.13-.368-3.124-1.256-4.432-1.972-2.359-1.292-10.305-3.676-15.263-4.58-9.877-1.799-27.151.475-34.688 4.568-1.308.71-3.306 1.599-4.44 1.974-1.133.376-2.917 1.353-3.964 2.171-1.047.818-2.795 1.997-3.885 2.618-3.023 1.725-13.038 11.759-14.888 14.917-.844 1.442-2.163 3.373-2.931 4.291-.767.919-1.66 2.562-1.983 3.651-.324 1.09-1.138 2.942-1.81 4.116-6.735 11.771-6.709 37.233.052 50.626.635 1.256 1.524 3.273 1.976 4.482.452 1.208 1.519 3.002 2.37 3.986.852.984 1.754 2.181 2.005 2.66 3.06 5.841 16.671 17.595 23.675 20.445 1.532.624 3.616 1.684 4.63 2.355 1.042.69 2.82 1.404 4.087 1.64 1.233.229 4.115.802 6.404 1.272 8.109 1.665 9.76 1.887 14.122 1.903 3.451.012 5.26-.201 8.325-.984 2.154-.55 5.7-1.267 7.88-1.593 3.354-.502 4.638-.928 8.337-2.766 2.405-1.196 4.548-2.174 4.764-2.174.215 0 2.163-1.159 4.327-2.576 5.542-3.629 6.96-3.404 7.563 1.199.635 4.843-1.391 7.515-8.267 10.905-2.638 1.301-5.036 2.365-5.329 2.365-.293 0-2.174.692-4.18 1.537s-4.625 1.765-5.82 2.044c-2.95.688-4.159 1.961-4.721 4.968-1.332 7.133-1.658 7.31-13.507 7.306-12.045-.003-12.268-.103-13.295-5.944-.714-4.061-1.246-4.897-3.651-5.744-7.228-2.543-11.383-4.237-16.707-6.811-7.977-3.856-7.477-3.799-12.115-1.359-5.737 3.02-6.68 2.782-12.833-3.238-8.911-8.719-9.141-9.264-6.231-14.782 2.591-4.912 2.408-7.156-1.032-12.664-.818-1.309-1.703-3.271-1.969-4.361-.265-1.09-1.163-3.32-1.994-4.956-.831-1.635-1.78-4.125-2.107-5.533-.967-4.151-1.942-4.979-7.037-5.967-4.668-.904-5.187-2.403-5.015-14.481.15-10.536.212-10.713 4.126-11.639l3.85-.913c2.122-.505 2.879-1.435 3.866-4.753.474-1.594 1.538-4.147 2.364-5.673.826-1.526 1.699-3.728 1.94-4.892.241-1.164 1.143-3.305 2.005-4.757 3.372-5.683 3.535-7.732 1.003-12.572-2.904-5.553-2.77-5.891 5.602-14.101 7.246-7.106 7.3-7.126 12.259-4.51 4.957 2.614 7.753 2.487 13.012-.592 1.499-.878 3.729-1.883 4.955-2.234 1.227-.352 3.353-1.262 4.726-2.023 1.372-.762 3.751-1.707 5.286-2.102 4.092-1.053 5.106-2.25 5.699-6.726.335-2.526 1.058-4.133 2.064-4.58 2.465-1.097 18.643-1.139 21.215-.055m.488 31.609c10.767 1.233 25.828 11.231 32.89 21.831 1.073 1.611 2.717 4.089 3.654 5.506 1.171 1.771 2.004 3.693 2.663 6.145a313.28 313.28 0 001.854 6.565c1.388 4.655.505 5.746-5.274 6.514-1.125.15-2.329.629-2.973 1.183l-1.083.931-.198 17.378c-.173 15.156-.282 17.531-.852 18.568-1.771 3.221-9.924 10.503-14.21 12.694-.762.389-2.33 1.334-3.484 2.101-3.151 2.092-14.161 5.032-20.331 5.428-7.046.453-11.084-.2-22.244-3.6-1.707-.52-5.252-2.462-10.564-5.787-6.661-4.17-16.164-15.485-18.536-22.071-.366-1.016-1.17-2.967-1.788-4.336-2.077-4.607-3.05-21.83-1.628-28.819 3.347-16.459 16.691-31.423 33.936-38.054 6.498-2.499 17.762-3.369 28.168-2.177m-17.228 20.791c-8.828 2.338-13.222 5.092-18.355 11.501-13.951 17.422-5.446 44.361 15.702 49.734 2.575.654 4.839 1.287 5.031 1.406 1.166.72 4.712.941 6.938.432 10.291-2.354 12.203-3.01 15.461-5.308 6.298-4.442 10.312-10.003 12.082-16.742.656-2.5 1.486-5.617 1.844-6.925.757-2.772.634-3.726-1.584-12.24-4.143-15.903-21.348-26.034-37.119-21.858m15.737 12.402c16.323 8.357 16.166 29.664-.276 37.43-7.042 3.326-9.838 3.366-16.933.245-15.511-6.825-16.758-28.493-2.134-37.063 5.459-3.199 13.775-3.462 19.343-.612m134.551 7.19c1.258.888 3.235 1.986 4.394 2.442 1.159.456 2.909 1.254 3.891 1.774 3.344 1.774 10.497 4.652 14.395 5.793 2.14.627 4.738 1.569 5.774 2.094 2.05 1.038 4.842 1.612 9.761 2.004 1.744.139 4.688.61 6.541 1.047 7.845 1.848 9.285 2.011 20.218 2.285 12.122.305 13.005.487 13.832 2.862.577 1.653.599 51.812.029 63.027-.518 10.172-.853 12.271-2.591 16.223-.773 1.758-1.74 4.964-2.156 7.148-.457 2.397-1.367 5.325-2.305 7.419-.853 1.903-1.686 3.893-1.85 4.422-.822 2.643-7.962 16.214-9.287 17.652-.412.446-1.31 1.77-1.995 2.941-.685 1.171-1.768 2.777-2.406 3.568-.639.791-2.573 3.222-4.299 5.403-3.081 3.893-12.209 13.143-16.109 16.325-4.375 3.568-13.081 9.837-14.293 10.291-.424.159-1.842.935-3.15 1.723-2.206 1.329-6.19 3.263-15.659 7.597-5.523 2.529-10.385 2.555-15.461.084-1.854-.902-3.816-1.766-4.361-1.92-1.748-.495-9.671-4.231-10.902-5.141-.654-.483-2.453-1.612-3.997-2.509-1.545-.897-3.045-1.917-3.335-2.265-.289-.349-1.57-1.246-2.845-1.994-7.683-4.503-22.4-18.65-27.351-26.292-.799-1.233-1.986-2.869-2.637-3.635-3.802-4.471-12.902-21.785-13.958-26.556-.265-1.199-1.191-3.648-2.057-5.442-1.129-2.337-1.739-4.302-2.155-6.937a172.529 172.529 0 00-2.295-11.803c-1.218-5.333-1.451-12.575-1.332-41.319l.119-28.436 1.099-1.099 1.098-1.099 11.191-.246c11.304-.249 13.56-.494 21.493-2.334 1.747-.405 4.603-.851 6.348-.99 5.13-.409 7.493-.932 10.574-2.339 1.598-.729 3.885-1.548 5.085-1.821 4.617-1.049 19.716-7.818 21.858-9.799 2.862-2.647 7.455-2.708 11.086-.148m-7.099 10c-.72.207-2.161.901-3.202 1.542-1.041.64-3.083 1.612-4.538 2.16-1.454.547-3.581 1.521-4.726 2.164-1.144.643-3.419 1.535-5.054 1.983-1.636.448-4.312 1.343-5.947 1.988-5.631 2.222-15.697 4.73-20.812 5.185-2.617.232-7.523.761-10.902 1.174-3.38.413-7.697.841-9.593.951-3.893.227-5.384.829-6.729 2.715l-.923 1.294v22.597c0 32.57 1.41 44.571 6.587 56.048.627 1.391 1.497 3.727 1.933 5.191.436 1.464 1.352 3.433 2.036 4.377.683.944 1.682 2.711 2.219 3.927.967 2.189 1.57 3.202 6.029 10.14 3.607 5.611 11.546 14.868 16.258 18.957 1.211 1.051 3.295 2.871 4.629 4.043 6.455 5.669 14.676 10.904 23.936 15.243 1.417.664 3.401 1.664 4.408 2.222 3.805 2.109 10.519 1.684 14.326-.907 1.144-.778 3.062-1.805 4.263-2.283 4.078-1.622 13.37-7.07 17.182-10.075 16.565-13.057 29.119-28.625 35.043-43.454.262-.654 1.081-2.226 1.822-3.494.821-1.405 1.616-3.571 2.039-5.55.381-1.785 1.141-4.316 1.689-5.624 3.635-8.676 4.969-23.067 4.783-51.592-.155-23.824.123-23.109-9.29-23.896-3.988-.334-14.583-1.457-22.841-2.421-1.905-.222-5.384-1.003-7.73-1.735-2.347-.733-4.891-1.465-5.654-1.629-.763-.163-2.369-.732-3.568-1.265-1.199-.532-3.777-1.398-5.729-1.923-2.013-.542-4.541-1.569-5.845-2.373-1.263-.78-3.55-1.844-5.083-2.366-1.532-.521-3.33-1.335-3.995-1.808-1.159-.825-4.374-1.995-5.278-1.92-.238.02-1.022.206-1.743.414m6.178 13.609c1.575.754 3.736 1.631 4.801 1.947 1.066.317 3.251 1.29 4.856 2.163 2.02 1.099 3.942 1.777 6.245 2.204 1.829.339 4.505 1.169 5.946 1.844 4.046 1.897 20.465 5.094 29.877 5.817 5.282.406 6.551.994 7.154 3.314.764 2.94.064 43.816-.814 47.543-2.537 10.766-6.041 21.472-8.063 24.63-.646 1.009-1.607 2.939-2.136 4.287-4.224 10.779-19.683 27.988-33.107 36.854-13.627 9.001-20.475 10.838-26.089 6.998-1.024-.701-2.859-1.728-4.076-2.282-1.217-.554-3.154-1.655-4.306-2.447-1.151-.792-2.246-1.44-2.432-1.44-1.082 0-10.63-7.996-16.641-13.936-9.149-9.041-13.581-15.23-19.259-26.896-1.997-4.103-2.9-6.408-5.906-15.065-.518-1.491-1.155-4.916-1.512-8.127-.34-3.052-1.027-7.155-1.528-9.118-.887-3.476-.91-4.054-.91-22.465v-18.897l.965-1.028c1.268-1.351 2.692-1.686 9.364-2.203 7.344-.569 23.612-3.836 27.415-5.505 1.501-.659 4.378-1.558 6.394-1.998 2.504-.546 4.382-1.241 5.928-2.194 1.244-.767 3.199-1.672 4.343-2.012 1.144-.339 3.369-1.234 4.944-1.988 1.61-.772 3.481-1.373 4.274-1.373.792 0 2.664.601 4.273 1.373m-22.707 16.835c-6.488 1.566-4.207 11.101 2.437 10.191 5.118-.702 6.909-3.614 4.798-7.798-1.3-2.575-3.485-3.298-7.235-2.393m-24.975 5.441c-10.662 2.242-10.509 2.011-10.486 15.796.022 13.68.44 14.742 5.644 14.37 5.127-.367 5.941-1.69 6.16-10.009.211-8.017.492-8.524 5.161-9.275 5.477-.882 6.811-3.287 4.423-7.969-1.498-2.936-5.592-4.03-10.902-2.913m73.339 3.083c-.654.3-9.395 8.782-19.425 18.848-10.029 10.066-18.751 18.575-19.381 18.907-1.891 1-3.201.413-7.236-3.238-4.05-3.665-4.919-3.985-7.396-2.724-1.623.826-17.371 16.427-18.926 18.748-2.172 3.244-2.913 2.24 15.059 20.389 15.241 15.39 15.79 15.768 19.468 13.388 1.726-1.117 58.777-58.091 60.533-60.451 2.18-2.93 1.352-4.302-8.764-14.523-9.666-9.766-11.025-10.678-13.932-9.344m4.014 15.653c2.091.95 4.51 4.035 4.51 5.752 0 1.483-45.008 47.027-47.514 48.079-2.499 1.05-3.298.542-10.643-6.771-8.641-8.604-8.957-9.282-6.045-12.959 3.032-3.829 5.191-3.806 9.404.1 6.436 5.968 4.462 7.11 27.337-15.824 20.407-20.46 19.668-19.867 22.951-18.377m-88.514 102.61c2.876 2.718 11.07 9.347 15.521 12.557 5.508 3.971 6.143 7.081 2.752 13.471-.747 1.408-1.708 4.044-2.135 5.858-.916 3.886-3.801 11.721-4.682 12.713-1.441 1.622-4.323-.502-6.625-4.884-4.745-9.028-6.572-10.071-14.795-8.439-3.78.75-5.046.45-5.485-1.3-.396-1.576.937-8.152 2.462-12.143.844-2.211 1.554-5.097 1.951-7.929.537-3.835.875-4.947 2.438-8.021 3.195-6.281 3.803-6.414 8.598-1.883m116.382-2.222c.763.819 1.093 2.028 2.016 7.373.235 1.361 1.125 3.948 1.977 5.749 1.224 2.588 1.683 4.212 2.19 7.758.353 2.467 1.076 5.638 1.606 7.046 2.242 5.956 1.17 7.236-4.784 5.714-6.881-1.76-10.087-.785-12.374 3.766-5.78 11.5-9.429 12.834-11.571 4.227-.448-1.801-1.43-4.38-2.183-5.733-.885-1.591-1.586-3.619-1.986-5.75-.341-1.81-1.1-4.486-1.688-5.946-1.875-4.658-1.616-5.373 3.225-8.9 6.338-4.618 8.615-6.357 9.446-7.218.861-.891 7.308-6.328 9.553-8.056 1.483-1.142 3.524-1.155 4.573-.03" fill="#ebb804"/><path d="M0 198.216v198.216h400V0H0v198.216M138.161 44.178c1.771.74 2.782 2.456 3.371 5.718 1.004 5.566 3.036 8.26 6.932 9.189 1.09.26 3.588 1.21 5.55 2.111 5.039 2.314 8.121 2.346 11.475.119 6.975-4.631 7.378-4.442 22.395 10.537 13.893 13.859 13.739 13.566 10.179 19.479-3.181 5.282-2.864 9.293 1.465 18.531 2.486 5.305 3.978 6.522 9.501 7.748 5.213 1.157 5.871 1.86 6.551 7 .74 5.605 3.923 6.506 9.996 2.833 1.203-.727 3.432-1.622 4.955-1.988 2.921-.702 15.91-6.884 19.419-9.241 5.961-4.004 9.198-4.043 15.132-.185 4.022 2.615 16.748 8.698 19.676 9.405 1.482.358 4.069 1.366 5.748 2.24 2.606 1.357 3.708 1.674 7.538 2.172 2.467.32 6.534 1.114 9.037 1.764 6.399 1.662 10.955 1.987 27.844 1.987 16.104.001 16.878.097 17.845 2.219.566 1.242.635 76.805.074 81.68-.204 1.773-.986 5.073-1.739 7.334-.752 2.26-1.745 6.096-2.206 8.525-.834 4.389-2.816 10.317-5.35 16.001-.729 1.635-1.626 3.809-1.994 4.83-.368 1.021-1.337 2.894-2.154 4.162-.816 1.269-1.777 3.043-2.136 3.945-.358.901-2.174 3.979-4.035 6.84-4.721 7.256-5.088 8.047-4.878 10.501.164 1.924 2.938 13.183 3.774 15.318.215.549.78 2.955 1.255 5.347.476 2.392 1.392 5.549 2.036 7.017.731 1.665 1.396 4.198 1.77 6.744.702 4.772 1.065 6.032 2.655 9.209.804 1.606 1.477 4.006 2.111 7.532.513 2.847 1.149 5.916 1.414 6.821 1.328 4.532-5.19 5.304-15.518 1.839-8.721-2.926-9.299-2.535-17.424 11.778a151.119 151.119 0 01-3.02 5.039 345.161 345.161 0 00-3.143 5.088c-3.113 5.155-4.32 5.666-6.743 2.856-2.111-2.448-2.893-4.2-3.729-8.355-.409-2.034-1.199-4.596-1.755-5.693-.555-1.097-1.469-3.626-2.03-5.62-.56-1.995-1.352-4.473-1.759-5.508-.406-1.034-1.135-3.308-1.618-5.052-.484-1.744-1.384-4.332-2.001-5.751-.617-1.418-1.474-3.892-1.905-5.497-1.284-4.788-2.87-5.29-8.597-2.723-11.014 4.936-16.339 6.155-20.607 4.716-5.022-1.694-8.955-3.24-11.368-4.468-7.071-3.602-9.962-.099-14.407 17.457-.354 1.4-1.185 3.618-1.847 4.929-.669 1.325-1.538 4.067-1.957 6.176-.503 2.526-1.268 4.787-2.292 6.767-.845 1.635-1.756 4.043-2.024 5.351-.933 4.562-2.346 5.969-4.813 4.798-1.408-.668-3.06-3.172-12.828-19.447-5.375-8.955-6.501-9.48-14.563-6.785-6.325 2.115-13.15 2.762-14.788 1.402-1.154-.958-.364-6.677 1.77-12.813.444-1.276 1.18-4.309 1.636-6.739.496-2.646 1.365-5.612 2.165-7.393 1.457-3.244 1.961-5.18 2.372-9.118.158-1.51.908-4.185 1.811-6.46.847-2.137 1.826-5.405 2.174-7.263.348-1.858 1.066-4.825 1.595-6.592 1.688-5.639 1.029-8.461-3.319-14.221-.901-1.193-1.931-2.875-2.29-3.737-.358-.863-1.238-2.371-1.955-3.352-1.217-1.666-5.682-10.871-6.345-13.082-.163-.545-.804-2.003-1.424-3.239-.62-1.236-1.49-3.912-1.934-5.947-.444-2.034-1.422-4.995-2.175-6.58-1.477-3.112-1.985-5.449-2.386-10.972-.632-8.715-4.582-9.599-16.433-3.676-4.788 2.393-5.174 2.9-6.232 8.174-1.508 7.517-1.073 7.373-22.335 7.373-21.422 0-19.646.555-21.577-6.739-1.569-5.925-2.083-6.521-8.075-9.372-8.84-4.205-13.006-4.464-18.132-1.124-2.589 1.686-4.573 2.251-6.35 1.805-1.261-.317-24.371-23.309-25.37-25.242-1.16-2.243-.654-5.235 1.498-8.85 2.771-4.657 2.825-6.735.303-11.73-.612-1.213-1.509-3.536-1.995-5.164-1.531-5.135-2.822-6.259-8.455-7.366-7.532-1.48-7.189-.433-7.189-21.938 0-21.8-.363-20.464 5.971-21.989 5.736-1.382 8.506-3.583 9.537-7.58.335-1.299 1.222-3.727 1.971-5.395 2.536-5.651 2.491-7.779-.266-12.54-1.7-2.936-2.288-5.426-1.769-7.492.449-1.789 24.218-25.299 25.912-25.629 1.964-.382 4.328.299 7.589 2.187 4.26 2.466 6.906 2.563 11.313.415 1.744-.851 4.42-1.926 5.946-2.391 4.564-1.389 6.334-3.537 7.578-9.198.846-3.847 1.504-5.089 3.053-5.762 1.896-.825 35.37-.834 37.342-.01m-26.962 10.891c-3.952.488-4.617 1.158-5.151 5.189-.593 4.476-1.607 5.673-5.699 6.726-1.535.395-3.914 1.34-5.286 2.102-1.373.761-3.499 1.671-4.726 2.023-1.226.351-3.456 1.356-4.955 2.234-5.259 3.079-8.055 3.206-13.012.592-4.959-2.616-5.013-2.596-12.259 4.51-8.372 8.21-8.506 8.548-5.602 14.101 2.532 4.84 2.369 6.889-1.003 12.572-.862 1.452-1.764 3.593-2.005 4.757-.241 1.164-1.114 3.366-1.94 4.892-.826 1.526-1.89 4.079-2.364 5.673-.987 3.318-1.744 4.248-3.866 4.753l-3.85.913c-3.914.926-3.976 1.103-4.126 11.639-.172 12.078.347 13.577 5.015 14.481 5.095.988 6.07 1.816 7.037 5.967.327 1.408 1.276 3.898 2.107 5.533.831 1.636 1.729 3.866 1.994 4.956.266 1.09 1.151 3.052 1.969 4.361 3.44 5.508 3.623 7.752 1.032 12.664-2.91 5.518-2.68 6.063 6.231 14.782 6.153 6.02 7.096 6.258 12.833 3.238 4.638-2.44 4.138-2.497 12.115 1.359 5.324 2.574 9.479 4.268 16.707 6.811 2.405.847 2.937 1.683 3.651 5.744 1.027 5.841 1.25 5.941 13.295 5.944 11.849.004 12.175-.173 13.507-7.306.562-3.007 1.771-4.28 4.721-4.968 1.195-.279 3.814-1.199 5.82-2.044 2.006-.845 3.887-1.537 4.18-1.537.293 0 2.691-1.064 5.329-2.365 6.876-3.39 8.902-6.062 8.267-10.905-.603-4.603-2.021-4.828-7.563-1.199-2.164 1.417-4.112 2.576-4.327 2.576-.216 0-2.359.978-4.764 2.174-3.699 1.838-4.983 2.264-8.337 2.766-2.18.326-5.726 1.043-7.88 1.593-3.065.783-4.874.996-8.325.984-4.362-.016-6.013-.238-14.122-1.903a456.413 456.413 0 00-6.404-1.272c-1.267-.236-3.045-.95-4.087-1.64-1.014-.671-3.098-1.731-4.63-2.355-7.004-2.85-20.615-14.604-23.675-20.445-.251-.479-1.153-1.676-2.005-2.66-.851-.984-1.918-2.778-2.37-3.986-.452-1.209-1.341-3.226-1.976-4.482-6.761-13.393-6.787-38.855-.052-50.626.672-1.174 1.486-3.026 1.81-4.116.323-1.089 1.216-2.732 1.983-3.651.768-.918 2.087-2.849 2.931-4.291 1.85-3.158 11.865-13.192 14.888-14.917 1.09-.621 2.838-1.8 3.885-2.618 1.047-.818 2.831-1.795 3.964-2.171 1.134-.375 3.132-1.264 4.44-1.974 7.537-4.093 24.811-6.367 34.688-4.568 4.958.904 12.904 3.288 15.263 4.58 1.308.716 3.302 1.604 4.432 1.972 1.129.368 2.735 1.187 3.568 1.82a279.83 279.83 0 004.487 3.291c6.029 4.338 17.561 17.529 18.906 21.625.117.356 1.169 2.609 2.339 5.007 1.593 3.267 2.233 5.107 2.551 7.334 1.66 11.637 2.149 12.116 12.279 12.046 8.76-.06 10.878-1.012 10.103-4.541-.414-1.885-3.982-3.389-8.364-3.527-.96-.03-2.578-2.232-3.185-4.336-.991-3.43-4.344-11.622-6.924-16.915-2.855-5.855-2.899-6.569-.681-10.909 3.13-6.126 2.569-7.328-8.069-17.273-4.55-4.254-4.902-4.323-9.573-1.877-5.413 2.835-7.789 2.619-13.723-1.251-.774-.505-2.567-1.212-3.984-1.571-1.417-.36-3.839-1.348-5.381-2.196-1.542-.849-3.772-1.748-4.955-1.998-4.044-.856-5.064-1.994-5.721-6.379-.374-2.492-1.513-4.214-3.278-4.958-1.671-.704-13.891-1.078-18.128-.554m-2.218 32.188c-17.78 2.296-37.46 21.469-41.27 40.206-1.422 6.989-.449 24.212 1.628 28.819.618 1.369 1.422 3.32 1.788 4.336 2.372 6.586 11.875 17.901 18.536 22.071 5.312 3.325 8.857 5.267 10.564 5.787 11.16 3.4 15.198 4.053 22.244 3.6 6.17-.396 17.18-3.336 20.331-5.428 1.154-.767 2.722-1.712 3.484-2.101 4.286-2.191 12.439-9.473 14.21-12.694.57-1.037.679-3.412.852-18.568l.198-17.378 1.083-.931c.644-.554 1.848-1.033 2.973-1.183 5.779-.768 6.662-1.859 5.274-6.514a313.28 313.28 0 01-1.854-6.565c-.659-2.452-1.492-4.374-2.663-6.145-.937-1.417-2.581-3.895-3.654-5.506-7.062-10.6-22.123-20.598-32.89-21.831-4.164-.477-17.069-.462-20.834.025m19.463 21.354c11.139 3.164 18.451 10.478 21.262 21.27 2.218 8.514 2.341 9.468 1.584 12.24a897.707 897.707 0 00-1.844 6.925c-1.77 6.739-5.784 12.3-12.082 16.742-3.258 2.298-5.17 2.954-15.461 5.308-2.226.509-5.772.288-6.938-.432-.192-.119-2.456-.752-5.031-1.406-16.538-4.202-26.103-21.809-21.165-38.961 2.586-8.984 10.4-18.037 17.673-20.478 9.55-3.205 14.092-3.454 22.002-1.208m-15.465 10.645c-18.036 5.934-19.248 31.195-1.864 38.844 7.095 3.121 9.891 3.081 16.933-.245 16.442-7.766 16.599-29.073.276-37.43-3.983-2.039-11.062-2.578-15.345-1.169m141.387 6.97c-.843.313-2.002 1.005-2.577 1.537-2.142 1.981-17.241 8.75-21.858 9.799-1.2.273-3.487 1.092-5.085 1.821-3.081 1.407-5.444 1.93-10.574 2.339-1.745.139-4.601.585-6.348.99-7.933 1.84-10.189 2.085-21.493 2.334l-11.191.246-1.098 1.099-1.099 1.099-.119 28.436c-.119 28.744.114 35.986 1.332 41.319.961 4.209 1.678 7.9 2.295 11.803.416 2.635 1.026 4.6 2.155 6.937.866 1.794 1.792 4.243 2.057 5.442 1.056 4.771 10.156 22.085 13.958 26.556.651.766 1.838 2.402 2.637 3.635 4.951 7.642 19.668 21.789 27.351 26.292 1.275.748 2.556 1.645 2.845 1.994.29.348 1.79 1.368 3.335 2.265 1.544.897 3.343 2.026 3.997 2.509 1.231.91 9.154 4.646 10.902 5.141.545.154 2.507 1.018 4.361 1.92 5.076 2.471 9.938 2.445 15.461-.084 9.469-4.334 13.453-6.268 15.659-7.597 1.308-.788 2.726-1.564 3.15-1.723 1.212-.454 9.918-6.723 14.293-10.291 3.9-3.182 13.028-12.432 16.109-16.325 1.726-2.181 3.66-4.612 4.299-5.403.638-.791 1.721-2.397 2.406-3.568.685-1.171 1.583-2.495 1.995-2.941 1.325-1.438 8.465-15.009 9.287-17.652.164-.529.997-2.519 1.85-4.422.938-2.094 1.848-5.022 2.305-7.419.416-2.184 1.383-5.39 2.156-7.148 1.738-3.952 2.073-6.051 2.591-16.223.57-11.215.548-61.374-.029-63.027-.827-2.375-1.71-2.557-13.832-2.862-10.933-.274-12.373-.437-20.218-2.285-1.853-.437-4.797-.908-6.541-1.047-4.919-.392-7.711-.966-9.761-2.004-1.036-.525-3.634-1.467-5.774-2.094-3.898-1.141-11.051-4.019-14.395-5.793-.982-.52-2.732-1.318-3.891-1.774-1.159-.456-3.136-1.554-4.394-2.442-2.675-1.886-5.803-2.397-8.509-1.389m5.404 11.487c1 .301 2.362.934 3.027 1.408.665.473 2.463 1.287 3.995 1.808 1.533.522 3.82 1.586 5.083 2.366 1.304.804 3.832 1.831 5.845 2.373 1.952.525 4.53 1.391 5.729 1.923 1.199.533 2.805 1.102 3.568 1.265.763.164 3.307.896 5.654 1.629 2.346.732 5.825 1.513 7.73 1.735 8.258.964 18.853 2.087 22.841 2.421 9.413.787 9.135.072 9.29 23.896.186 28.525-1.148 42.916-4.783 51.592-.548 1.308-1.308 3.839-1.689 5.624-.423 1.979-1.218 4.145-2.039 5.55-.741 1.268-1.56 2.84-1.822 3.494-5.924 14.829-18.478 30.397-35.043 43.454-3.812 3.005-13.104 8.453-17.182 10.075-1.201.478-3.119 1.505-4.263 2.283-3.807 2.591-10.521 3.016-14.326.907-1.007-.558-2.991-1.558-4.408-2.222-9.26-4.339-17.481-9.574-23.936-15.243a1231.318 1231.318 0 00-4.629-4.043c-4.712-4.089-12.651-13.346-16.258-18.957-4.459-6.938-5.062-7.951-6.029-10.14-.537-1.216-1.536-2.983-2.219-3.927-.684-.944-1.6-2.913-2.036-4.377-.436-1.464-1.306-3.8-1.933-5.191-5.177-11.477-6.587-23.478-6.587-56.048v-22.597l.923-1.294c1.345-1.886 2.836-2.488 6.729-2.715 1.896-.11 6.213-.538 9.593-.951 3.379-.413 8.285-.942 10.902-1.174 5.115-.455 15.181-2.963 20.812-5.185 1.635-.645 4.311-1.54 5.947-1.988 1.635-.448 3.91-1.34 5.054-1.983 1.145-.643 3.272-1.617 4.726-2.164 1.455-.548 3.497-1.52 4.538-2.16 1.697-1.045 3.751-1.857 4.945-1.956.238-.019 1.251.211 2.251.512m-6.363 13.511c-1.575.754-3.8 1.649-4.944 1.988-1.144.34-3.099 1.245-4.343 2.012-1.546.953-3.424 1.648-5.928 2.194-2.016.44-4.893 1.339-6.394 1.998-3.803 1.669-20.071 4.936-27.415 5.505-6.672.517-8.096.852-9.364 2.203l-.965 1.028v18.897c0 18.411.023 18.989.91 22.465.501 1.963 1.188 6.066 1.528 9.118.357 3.211.994 6.636 1.512 8.127 3.006 8.657 3.909 10.962 5.906 15.065 5.678 11.666 10.11 17.855 19.259 26.896 6.011 5.94 15.559 13.936 16.641 13.936.186 0 1.281.648 2.432 1.44 1.152.792 3.089 1.893 4.306 2.447s3.052 1.581 4.076 2.282c5.614 3.84 12.462 2.003 26.089-6.998 13.424-8.866 28.883-26.075 33.107-36.854.529-1.348 1.49-3.278 2.136-4.287 2.022-3.158 5.526-13.864 8.063-24.63.878-3.727 1.578-44.603.814-47.543-.603-2.32-1.872-2.908-7.154-3.314-9.412-.723-25.831-3.92-29.877-5.817-1.441-.675-4.117-1.505-5.946-1.844-2.303-.427-4.225-1.105-6.245-2.204-1.605-.873-3.79-1.846-4.856-2.163-1.065-.316-3.226-1.193-4.801-1.947-1.609-.772-3.481-1.373-4.273-1.373-.793 0-2.664.601-4.274 1.373m-8.808 16.97c3.382 1.675 3.624 7.364.384 9.017-5.771 2.944-11.916-1.892-9.097-7.159 1.021-1.906 6.33-3.039 8.713-1.858m-21.252 5.877c2.159 1.698 3.526 5.978 2.522 7.891-.665 1.266-2.064 1.928-5.118 2.42-4.669.751-4.95 1.258-5.161 9.275-.219 8.319-1.033 9.642-6.16 10.009-5.204.372-5.622-.69-5.644-14.37-.023-13.785-.176-13.554 10.486-15.796 2.712-.571 8.051-.235 9.075.571m68.886 2.975c1.446.739 17.405 16.918 18.251 18.504 1.882 3.527 4.211.798-30.008 35.154-33.676 33.811-32.385 32.737-36.295 30.189-1.655-1.078-23.545-22.872-28.047-27.922-3.368-3.778-3.14-4.2 8.528-15.774 11.39-11.298 11.225-11.239 16.907-6.097 4.035 3.651 5.345 4.238 7.236 3.238.63-.332 9.352-8.841 19.381-18.907 20.645-20.719 20.177-20.362 24.047-18.385m-4.993 15.43c-.81.55-9.165 8.712-18.566 18.137-22.875 22.934-20.901 21.792-27.337 15.824-4.213-3.906-6.372-3.929-9.404-.1-2.912 3.677-2.596 4.355 6.045 12.959 7.345 7.313 8.144 7.821 10.643 6.771 2.506-1.052 47.514-46.596 47.514-48.079 0-3.999-5.815-7.602-8.895-5.512m-90.303 99.992c-2.051 2.334-4.246 7.881-4.862 12.282-.397 2.832-1.107 5.718-1.951 7.929-1.525 3.991-2.858 10.567-2.462 12.143.439 1.75 1.705 2.05 5.485 1.3 8.223-1.632 10.05-.589 14.795 8.439 2.302 4.382 5.184 6.506 6.625 4.884.881-.992 3.766-8.827 4.682-12.713.427-1.814 1.388-4.45 2.135-5.858 3.391-6.39 2.756-9.5-2.752-13.471-4.451-3.21-12.645-9.839-15.521-12.557-3.464-3.273-4.902-3.827-6.174-2.378m117.983.186c-2.245 1.728-8.692 7.165-9.553 8.056-.831.861-3.108 2.6-9.446 7.218-4.841 3.527-5.1 4.242-3.225 8.9.588 1.46 1.347 4.136 1.688 5.946.4 2.131 1.101 4.159 1.986 5.75.753 1.353 1.735 3.932 2.183 5.733 2.142 8.607 5.791 7.273 11.571-4.227 2.287-4.551 5.493-5.526 12.374-3.766 5.954 1.522 7.026.242 4.784-5.714-.53-1.408-1.253-4.579-1.606-7.046-.507-3.546-.966-5.17-2.19-7.758-.852-1.801-1.742-4.388-1.977-5.749-.923-5.345-1.253-6.554-2.016-7.373-1.049-1.125-3.09-1.112-4.573.03" fill="#1c1c1c"/></g></svg>