<svg xmlns="http://www.w3.org/2000/svg" width="400" height="400"><g fill-rule="evenodd"><path d="M70.544 45.215c-8.788.596-16.716 5.267-23.434 13.809-1.075 1.366-5.342 11.228-6.22 14.376-.761 2.727-1.297 256.796-.554 263 .232 1.946.917 4.336 1.949 6.8.874 2.09 2.084 5.189 2.688 6.887 1.965 5.523 8.707 11.921 16.957 16.092 4.147 2.097-3.641 1.977 137.07 2.108 154.372.144 141.41.568 149.622-4.893 10.032-6.671 13.186-11.951 14.57-24.394.812-7.298.341-266.376-.491-270.377-1.65-7.929-5.848-13.444-14.195-18.647-5.941-3.704-7.767-4.323-14.078-4.774-6.127-.438-257.416-.425-263.884.013M336.3 63.336c4.812 1.659 10.322 7.483 11.276 11.919.737 3.428.632 260.931-.108 263.077-.533 1.547-3.066 4.781-6.668 8.512-2.089 2.164-5.26 3.353-10.6 3.977-4.492.524-252.315.489-256-.036-6.495-.926-11.173-4.288-14.448-10.385C59.02 339.038 59 335.411 59 206V73l1.124-2.29c1.859-3.785 5.321-6.194 10.866-7.561 4.455-1.099 262.108-.917 265.31.187m-137.923 46.621c-2.043.665-2.859 1.339-3.602 2.975-.735 1.618-.758 4.006-.766 79.913-.009 81.026-.022 81.666-1.683 83.434-2.154 2.293-1.1 3.161-25.832-21.272C157.173 245.799 156 245 151.8 245c-8.426 0-11.288 6.931-5.555 13.452 2.474 2.816 21.834 22.779 24.33 25.09.867.802 6.987 6.832 13.6 13.401 13.389 13.297 13.824 13.619 18.425 13.642 5.278.028 4.65.549 30.602-25.398 26.955-26.949 27.999-28.174 27.997-32.871-.001-4.625-2.786-7.323-7.537-7.303-4.448.019-4.83.304-18.462 13.778-17.516 17.312-17.707 17.494-18.729 17.802-1.173.353-2.932-.358-3.623-1.465-1.024-1.639-1.132-9.164-1.218-84.728-.099-86.099.259-77.754-3.416-79.581-2.118-1.052-7.74-1.546-9.837-.862" fill="#e4b206"/><path d="M0 200v200h400V0H0v200M334.428 45.202c13.529.967 25.699 11.049 28.273 23.421.832 4.001 1.303 263.079.491 270.377-1.384 12.443-4.538 17.723-14.57 24.394-8.212 5.461 4.75 5.037-149.622 4.893-140.711-.131-132.923-.011-137.07-2.108-8.25-4.171-14.992-10.569-16.957-16.092-.604-1.698-1.814-4.797-2.688-6.887-1.032-2.464-1.717-4.854-1.949-6.8-.743-6.204-.207-260.273.554-263 .878-3.148 5.145-13.01 6.22-14.376 6.718-8.542 14.646-13.213 23.434-13.809 6.468-.438 257.757-.451 263.884-.013M70.99 63.149c-5.545 1.367-9.007 3.776-10.866 7.561L59 73v133c0 129.411.02 133.038.752 134.4 3.275 6.097 7.953 9.459 14.448 10.385 3.685.525 251.508.56 256 .036 5.34-.624 8.511-1.813 10.6-3.977 3.602-3.731 6.135-6.965 6.668-8.512.74-2.146.845-259.649.108-263.077-.954-4.436-6.464-10.26-11.276-11.919-3.202-1.104-260.855-1.286-265.31-.187m137.224 47.67c3.675 1.827 3.317-6.518 3.416 79.581.086 75.564.194 83.089 1.218 84.728.691 1.107 2.45 1.818 3.623 1.465 1.022-.308 1.213-.49 18.729-17.802 13.632-13.474 14.014-13.759 18.462-13.778 4.751-.02 7.536 2.678 7.537 7.303.002 4.697-1.042 5.922-27.997 32.871-25.952 25.947-25.324 25.426-30.602 25.398-4.601-.023-5.036-.345-18.425-13.642-6.613-6.569-12.733-12.599-13.6-13.401-2.496-2.311-21.856-22.274-24.33-25.09-5.733-6.521-2.871-13.452 5.555-13.452 4.2 0 5.373.799 14.694 10.007 24.732 24.433 23.678 23.565 25.832 21.272 1.661-1.768 1.674-2.408 1.683-83.434.01-86.666-.168-80.675 2.434-82.068 2.858-1.53 8.651-1.509 11.771.042" fill="#1b1c1c"/></g></svg>