<svg width="400" height="107.8" xmlns="http://www.w3.org/2000/svg"><path fill="none" d="M-1-1h582v402H-1z"/><path fill="#ffc507" d="M68.7 47.8L45.2 71.2l-20-20.5-20-20.5 19.9 10.9L45 52l21.8-13.7c12-7.5 22.6-13.8 23.5-13.9 1 .1-8.7 10.5-21.6 23.4M93 73.9c-.7 8.1-1.3 1.5-1.3-14.8s.6-22.9 1.3-14.8c.7 8.2.7 21.5 0 29.6"/><path fill="#fff" stroke="#fff" d="M135.7 42.3v7.6l8.7-8.2c9.4-8.8 11.8-5.5 3.8 5.4-4.3 5.9-4 7.9 2 16.3 8.3 11.6 1.7 13.2-7.7 1.8l-6.5-7.8-.1 7.8c-.1 4.3-1.7 7.8-3.6 7.8-1.9 0-3.5-8.6-3.5-19.1s1.6-19.1 3.5-19.1c1.8 0 3.4 3.4 3.4 7.5"/><path fill="#fff" d="M379.1 43.6c7.3-13.7 10.5-10.5 10.5 10.3 0 10.5-1.6 19.1-3.5 19.1s-3.5-4.3-3.6-9.6c-.1-8.7-.5-9-4.8-3.4-4.4 5.8-5 5.7-10.1-1.7l-5.5-7.9-.2 11.3c-.1 6.2-1.7 11.3-3.7 11.3-4 0-4.8-32.3-.9-36.2 1.4-1.4 5.8 1.5 9.8 6.5l7.2 9.1 4.8-8.8"/><path fill="#ffc507" d="M86 75.7c-.8 7.2-1.4 1.3-1.4-13s.6-20.2 1.4-13 .8 18.8 0 26M59.1 64.4L73 50.8v18.1c0 10-1.6 18.1-3.5 18.1S66 83.6 66 79.4c0-7.3-.4-7.2-10.4 2.3l-10.4 9.9-7.3-9.3c-8.7-11-13.7-11.9-13.7-2.3 0 4.6-2.3 7-7 7-6.2 0-7-2.3-7-21.6V43.7l17.4 17.1L45.2 78l13.9-13.6m19.9 13c-.8 6.2-1.4 1.1-1.4-11.3s.6-17.5 1.4-11.3c.8 6.2.8 16.4 0 22.6"/><path fill="#fff" d="M237.7 50.6c3.9-10.2 9.2-5.3 9.2 8.5 0 7.7-1.6 13.9-3.5 13.9s-3.5-3.5-3.5-7.8c0-6.4-.7-6.8-3.5-2.6-3 4.6-3.8 4.6-6.9 0-2.8-4.2-3.4-3.7-3.5 2.6 0 4.3-1.6 7.8-3.5 7.8-3.9 0-4.8-21.8-1.2-25.5 1.3-1.3 5 .1 8.3 3 5.5 4.9 6.3 4.9 8.1.1m35 2.4c2.8 4.4 2.8 7.7 0 12.2-4 6.4-19.4 8.6-17.9 2.6.5-1.9 3.2-3 6.1-2.5 4.6.9 4.6.6 0-2.6s-4.6-4 0-7.3c4.1-2.9 3.6-3.2-2.6-1.5-8.1 2.3-11.1-3.3-3.5-6.4 7.1-3 13.8-.9 17.9 5.5m12.5-2c0 5.2.7 5.1 7-.5 7.4-6.7 9.9-2.6 2.8 4.5-3.2 3.2-3.2 5.1 0 8.3 7.1 7.1 4.6 11.2-2.8 4.5-6.3-5.7-7-5.7-7-.5 0 3.2-1.6 5.8-3.5 5.8s-3.5-6.3-3.5-13.9c0-7.7 1.6-13.9 3.5-13.9 2-.1 3.5 2.5 3.5 5.7m38.3-2.3c5 3.3 4.3 3.7-6.9 4.7-2.8.3-5.7 3.3-6.4 6.8-.9 4.7.6 6.1 5.9 5.2 8.3-1.3 10.4 5.3 2.2 7-12.3 2.6-20.6-14-11.5-23.1 5-4.9 9.7-5.1 16.7-.6M182 48.2c7.1 1.1.5 23.1-7.2 24.2-4.3.6-7.8 3.3-7.8 6.1 0 2.7-1.6 5-3.5 5s-3.5-8.3-3.5-18.4c0-19.4 1-20.2 22-16.9m-15 10.9c0 5.2 1.8 7.1 6.1 6.3 3.3-.6 6.1-3.5 6.1-6.3s-2.7-5.6-6.1-6.3c-4.3-.8-6.1 1.1-6.1 6.3m46.5-6.1c8.2 13-12.1 26.9-21.1 14.5-5.9-8.1-5.8-10.2 1.1-17 6.7-6.8 14.8-5.8 20 2.5m-16.9 2.5c-3.1 4.9.8 10.6 7.3 10.6 3 0 4.8-2.4 4.1-5.8-1.3-7-8.2-9.9-11.4-4.8m153 .2c1.3 2-2.3 3.5-8.5 3.5-5.9 0-10.6-1.6-10.6-3.5s3.8-3.5 8.5-3.5c4.6 0 9.4 1.5 10.6 3.5"/></svg>